<svg xmlns="http://www.w3.org/2000/svg" xmlns:xlink="http://www.w3.org/1999/xlink" width="500" zoomAndPan="magnify" viewBox="0 0 375 374.999991" height="500" preserveAspectRatio="xMidYMid meet" version="1.0"><defs><filter x="0%" y="0%" width="100%" height="100%" id="1933be0a0b"><feColorMatrix values="0 0 0 0 1 0 0 0 0 1 0 0 0 0 1 0 0 0 1 0" color-interpolation-filters="sRGB"/></filter><clipPath id="4b15944d69"><path d="M 92 39 L 241 39 L 241 346 L 92 346 Z M 92 39 " clip-rule="nonzero"/></clipPath><clipPath id="420989a0fc"><path d="M 129.667969 104.492188 L 119.496094 116.304688 C 90.542969 149.914062 84.769531 200.652344 102.175781 241.089844 C 106.507812 251.167969 112.28125 260.597656 119.496094 268.972656 L 185.25 345.3125 L 161.183594 241.03125 C 152.332031 202.675781 162.632812 163.363281 185.203125 136.929688 L 185.25 136.875 L 185.25 136.871094 C 196.425781 123.808594 210.597656 113.894531 226.9375 108.8125 L 240.832031 104.492188 L 185.25 39.964844 Z M 129.667969 104.492188 " clip-rule="nonzero"/></clipPath><linearGradient x1="-0.547524" gradientTransform="matrix(0, 44.589446, 44.589519, 0, 92.734591, 64.379518)" y1="0" x2="6.300436" gradientUnits="userSpaceOnUse" y2="0" id="82a00f2b5a"><stop stop-opacity="1" stop-color="rgb(100%, 100%, 0%)" offset="0"/><stop stop-opacity="1" stop-color="rgb(100%, 100%, 0%)" offset="0.0625"/><stop stop-opacity="1" stop-color="rgb(100%, 100%, 0%)" offset="0.078125"/><stop stop-opacity="1" stop-color="rgb(97.950745%, 99.075317%, 0.392151%)" offset="0.0820312"/><stop stop-opacity="1" stop-color="rgb(95.901489%, 98.150635%, 0.785828%)" offset="0.0859375"/><stop stop-opacity="1" stop-color="rgb(93.226624%, 96.943665%, 1.298523%)" offset="0.0898438"/><stop stop-opacity="1" stop-color="rgb(90.551758%, 95.73822%, 1.812744%)" offset="0.09375"/><stop stop-opacity="1" stop-color="rgb(87.876892%, 94.53125%, 2.325439%)" offset="0.0976563"/><stop stop-opacity="1" stop-color="rgb(85.202026%, 93.325806%, 2.839661%)" offset="0.101563"/><stop stop-opacity="1" stop-color="rgb(82.527161%, 92.118835%, 3.353882%)" offset="0.105469"/><stop stop-opacity="1" stop-color="rgb(79.852295%, 90.913391%, 3.868103%)" offset="0.109375"/><stop stop-opacity="1" stop-color="rgb(77.177429%, 89.706421%, 4.380798%)" offset="0.113281"/><stop stop-opacity="1" stop-color="rgb(74.502563%, 88.499451%, 4.89502%)" offset="0.117188"/><stop stop-opacity="1" stop-color="rgb(71.827698%, 87.29248%, 5.407715%)" offset="0.121094"/><stop stop-opacity="1" stop-color="rgb(69.152832%, 86.087036%, 5.921936%)" offset="0.125"/><stop stop-opacity="1" stop-color="rgb(66.47644%, 84.880066%, 6.434631%)" offset="0.128906"/><stop stop-opacity="1" stop-color="rgb(63.801575%, 83.674622%, 6.948853%)" offset="0.132812"/><stop stop-opacity="1" stop-color="rgb(61.126709%, 82.467651%, 7.461548%)" offset="0.136719"/><stop stop-opacity="1" stop-color="rgb(58.451843%, 81.262207%, 7.975769%)" offset="0.140625"/><stop stop-opacity="1" stop-color="rgb(55.776978%, 80.055237%, 8.48999%)" offset="0.144531"/><stop stop-opacity="1" stop-color="rgb(53.102112%, 78.848267%, 9.004211%)" offset="0.148438"/><stop stop-opacity="1" stop-color="rgb(50.427246%, 77.641296%, 9.516907%)" offset="0.152344"/><stop stop-opacity="1" stop-color="rgb(47.75238%, 76.435852%, 10.031128%)" offset="0.15625"/><stop stop-opacity="1" stop-color="rgb(45.077515%, 75.228882%, 10.543823%)" offset="0.160156"/><stop stop-opacity="1" stop-color="rgb(42.402649%, 74.023438%, 11.058044%)" offset="0.164062"/><stop stop-opacity="1" stop-color="rgb(39.727783%, 72.816467%, 11.57074%)" offset="0.167969"/><stop stop-opacity="1" stop-color="rgb(37.052917%, 71.609497%, 12.084961%)" offset="0.171875"/><stop stop-opacity="1" stop-color="rgb(34.376526%, 70.402527%, 12.597656%)" offset="0.175781"/><stop stop-opacity="1" stop-color="rgb(31.70166%, 69.197083%, 13.111877%)" offset="0.179688"/><stop stop-opacity="1" stop-color="rgb(29.026794%, 67.990112%, 13.624573%)" offset="0.183594"/><stop stop-opacity="1" stop-color="rgb(26.351929%, 66.784668%, 14.138794%)" offset="0.1875"/><stop stop-opacity="1" stop-color="rgb(23.677063%, 65.577698%, 14.653015%)" offset="0.191406"/><stop stop-opacity="1" stop-color="rgb(21.002197%, 64.372253%, 15.167236%)" offset="0.195313"/><stop stop-opacity="1" stop-color="rgb(18.327332%, 63.165283%, 15.679932%)" offset="0.199219"/><stop stop-opacity="1" stop-color="rgb(15.652466%, 61.958313%, 16.194153%)" offset="0.203125"/><stop stop-opacity="1" stop-color="rgb(12.9776%, 60.751343%, 16.706848%)" offset="0.207031"/><stop stop-opacity="1" stop-color="rgb(10.302734%, 59.545898%, 17.221069%)" offset="0.210938"/><stop stop-opacity="1" stop-color="rgb(7.627869%, 58.338928%, 17.733765%)" offset="0.214844"/><stop stop-opacity="1" stop-color="rgb(4.953003%, 57.133484%, 18.247986%)" offset="0.21875"/><stop stop-opacity="1" stop-color="rgb(2.476501%, 56.016541%, 18.722534%)" offset="0.222656"/><stop stop-opacity="1" stop-color="rgb(0%, 54.899597%, 19.198608%)" offset="0.226562"/><stop stop-opacity="1" stop-color="rgb(0%, 54.899597%, 19.198608%)" offset="0.234375"/><stop stop-opacity="1" stop-color="rgb(0%, 54.899597%, 19.198608%)" offset="0.25"/><stop stop-opacity="1" stop-color="rgb(0%, 54.899597%, 19.198608%)" offset="0.5"/><stop stop-opacity="1" stop-color="rgb(0%, 54.899597%, 19.198608%)" offset="1"/></linearGradient><clipPath id="cc0f258bb7"><path d="M 26 80 L 186 80 L 186 346 L 26 346 Z M 26 80 " clip-rule="nonzero"/></clipPath><clipPath id="2dacb15d04"><path d="M 29.671875 185.152344 C 16.433594 242.503906 46.023438 302.003906 95.425781 317.367188 L 95.476562 317.386719 L 185.25 345.3125 L 119.496094 268.972656 C 112.28125 260.597656 106.507812 251.167969 102.175781 241.089844 C 84.769531 200.652344 90.542969 149.914062 119.496094 116.304688 L 129.667969 104.492188 L 53.738281 80.875 Z M 29.671875 185.152344 " clip-rule="nonzero"/></clipPath><linearGradient x1="0.186684" gradientTransform="matrix(0, 31.270499, 31.270545, 0, 85.102297, 75.038388)" y1="0" x2="8.643101" gradientUnits="userSpaceOnUse" y2="0" id="4c739fc0ea"><stop stop-opacity="1" stop-color="rgb(21.012878%, 75.975037%, 58.570862%)" offset="0"/><stop stop-opacity="1" stop-color="rgb(20.431519%, 74.14856%, 59.980774%)" offset="0.00390625"/><stop stop-opacity="1" stop-color="rgb(19.850159%, 72.322083%, 61.392212%)" offset="0.0078125"/><stop stop-opacity="1" stop-color="rgb(19.268799%, 70.495605%, 62.802124%)" offset="0.0117188"/><stop stop-opacity="1" stop-color="rgb(18.687439%, 68.669128%, 64.212036%)" offset="0.015625"/><stop stop-opacity="1" stop-color="rgb(18.106079%, 66.841125%, 65.621948%)" offset="0.0195313"/><stop stop-opacity="1" stop-color="rgb(17.524719%, 65.014648%, 67.033386%)" offset="0.0234375"/><stop stop-opacity="1" stop-color="rgb(16.943359%, 63.188171%, 68.443298%)" offset="0.0273438"/><stop stop-opacity="1" stop-color="rgb(16.362%, 61.361694%, 69.854736%)" offset="0.03125"/><stop stop-opacity="1" stop-color="rgb(15.78064%, 59.535217%, 71.264648%)" offset="0.0351563"/><stop stop-opacity="1" stop-color="rgb(15.19928%, 57.70874%, 72.676086%)" offset="0.0390625"/><stop stop-opacity="1" stop-color="rgb(14.61792%, 55.880737%, 74.085999%)" offset="0.0429688"/><stop stop-opacity="1" stop-color="rgb(14.03656%, 54.05426%, 75.497437%)" offset="0.046875"/><stop stop-opacity="1" stop-color="rgb(13.4552%, 52.227783%, 76.907349%)" offset="0.0507813"/><stop stop-opacity="1" stop-color="rgb(12.87384%, 50.401306%, 78.317261%)" offset="0.0546875"/><stop stop-opacity="1" stop-color="rgb(12.29248%, 48.574829%, 79.727173%)" offset="0.0585938"/><stop stop-opacity="1" stop-color="rgb(11.711121%, 46.748352%, 81.138611%)" offset="0.0625"/><stop stop-opacity="1" stop-color="rgb(11.129761%, 44.921875%, 82.548523%)" offset="0.0664063"/><stop stop-opacity="1" stop-color="rgb(10.548401%, 43.095398%, 83.959961%)" offset="0.0703125"/><stop stop-opacity="1" stop-color="rgb(9.967041%, 41.267395%, 85.369873%)" offset="0.0742188"/><stop stop-opacity="1" stop-color="rgb(9.385681%, 39.440918%, 86.781311%)" offset="0.078125"/><stop stop-opacity="1" stop-color="rgb(8.804321%, 37.614441%, 88.191223%)" offset="0.0820313"/><stop stop-opacity="1" stop-color="rgb(8.222961%, 35.787964%, 89.601135%)" offset="0.0859375"/><stop stop-opacity="1" stop-color="rgb(7.641602%, 33.961487%, 91.011047%)" offset="0.0898438"/><stop stop-opacity="1" stop-color="rgb(7.060242%, 32.13501%, 92.422485%)" offset="0.09375"/><stop stop-opacity="1" stop-color="rgb(6.878662%, 31.567383%, 92.860413%)" offset="0.0976562"/><stop stop-opacity="1" stop-color="rgb(6.698608%, 30.999756%, 93.299866%)" offset="0.101563"/><stop stop-opacity="1" stop-color="rgb(6.698608%, 30.999756%, 93.299866%)" offset="0.109375"/><stop stop-opacity="1" stop-color="rgb(6.698608%, 30.999756%, 93.299866%)" offset="0.125"/><stop stop-opacity="1" stop-color="rgb(6.698608%, 30.999756%, 93.299866%)" offset="0.25"/><stop stop-opacity="1" stop-color="rgb(6.698608%, 30.999756%, 93.299866%)" offset="0.5"/><stop stop-opacity="1" stop-color="rgb(6.698608%, 30.999756%, 93.299866%)" offset="1"/></linearGradient><clipPath id="75d9e2d5e9"><path d="M 185 104 L 279 104 L 279 346 L 185 346 Z M 185 104 " clip-rule="nonzero"/></clipPath><clipPath id="8da0fb58ed"><path d="M 226.9375 108.8125 C 210.597656 113.894531 196.425781 123.808594 185.25 136.871094 C 207.859375 163.304688 218.175781 202.648438 209.320312 241.03125 L 185.25 345.3125 L 251.007812 268.972656 C 258.21875 260.601562 263.992188 251.167969 268.328125 241.089844 C 285.734375 200.652344 279.960938 149.914062 251.007812 116.304688 L 240.832031 104.492188 Z M 226.9375 108.8125 " clip-rule="nonzero"/></clipPath><linearGradient x1="-8.386897" gradientTransform="matrix(0, -28.477738, -28.477776, 0, 100.916231, 106.472597)" y1="0" x2="0.0695041" gradientUnits="userSpaceOnUse" y2="0" id="6672667047"><stop stop-opacity="1" stop-color="rgb(36.898804%, 8.999634%, 66.299438%)" offset="0"/><stop stop-opacity="1" stop-color="rgb(36.898804%, 8.999634%, 66.299438%)" offset="0.5"/><stop stop-opacity="1" stop-color="rgb(36.898804%, 8.999634%, 66.299438%)" offset="0.75"/><stop stop-opacity="1" stop-color="rgb(36.898804%, 8.999634%, 66.299438%)" offset="0.875"/><stop stop-opacity="1" stop-color="rgb(36.898804%, 8.999634%, 66.299438%)" offset="0.9375"/><stop stop-opacity="1" stop-color="rgb(36.898804%, 8.999634%, 66.299438%)" offset="0.96875"/><stop stop-opacity="1" stop-color="rgb(36.898804%, 8.999634%, 66.299438%)" offset="0.984375"/><stop stop-opacity="1" stop-color="rgb(37.007141%, 9.011841%, 66.253662%)" offset="0.992188"/><stop stop-opacity="1" stop-color="rgb(39.199829%, 9.257507%, 65.339661%)" offset="0.996094"/><stop stop-opacity="1" stop-color="rgb(41.285706%, 9.492493%, 64.471436%)" offset="1"/></linearGradient><clipPath id="92292e5201"><path d="M 185.257812 1.492188 L 278.128906 1.492188 L 278.128906 242.300781 L 185.257812 242.300781 Z M 185.257812 1.492188 " clip-rule="nonzero"/></clipPath><clipPath id="170518c025"><rect x="0" width="281" y="0" height="272"/></clipPath><clipPath id="7643689bda"><path d="M 186.148438 90.757812 L 309.542969 90.757812 L 309.542969 344.589844 L 186.148438 344.589844 Z M 186.148438 90.757812 " clip-rule="nonzero"/></clipPath><mask id="130255e70d"><g filter="url(#1933be0a0b)"><rect x="-37.5" width="450" fill="#000000" y="-37.499999" height="449.999989" fill-opacity="0.302"/></g></mask><clipPath id="05bf3e3b39"><path d="M 0.148438 0.757812 L 123.542969 0.757812 L 123.542969 254.589844 L 0.148438 254.589844 Z M 0.148438 0.757812 " clip-rule="nonzero"/></clipPath><clipPath id="14e9308fb1"><rect x="0" width="124" y="0" height="255"/></clipPath><clipPath id="bc290b2075"><path d="M 185.253906 115.832031 L 237.21875 115.832031 L 237.21875 345.3125 L 185.253906 345.3125 Z M 185.253906 115.832031 " clip-rule="nonzero"/></clipPath><mask id="e3108eb8a7"><g filter="url(#1933be0a0b)"><rect x="-37.5" width="450" fill="#000000" y="-37.499999" height="449.999989" fill-opacity="0.302"/></g></mask><clipPath id="1768209708"><path d="M 0.253906 0.832031 L 52.21875 0.832031 L 52.21875 230.3125 L 0.253906 230.3125 Z M 0.253906 0.832031 " clip-rule="nonzero"/></clipPath><clipPath id="c88bb22986"><rect x="0" width="53" y="0" height="231"/></clipPath><clipPath id="2d144be6a7"><path d="M 185.253906 3.003906 L 282.324219 3.003906 L 282.324219 245.3125 L 185.253906 245.3125 Z M 185.253906 3.003906 " clip-rule="nonzero"/></clipPath><clipPath id="af76644cdd"><rect x="0" width="285" y="0" height="275"/></clipPath><clipPath id="99ee1a73f1"><path d="M 185.25 2.519531 L 216.40625 2.519531 L 216.40625 214.3125 L 185.25 214.3125 Z M 185.25 2.519531 " clip-rule="nonzero"/></clipPath><clipPath id="372c95a2f9"><rect x="0" width="219" y="0" height="244"/></clipPath><clipPath id="4c5b2eff7b"><path d="M 181.433594 2.875 L 212.453125 2.875 L 212.453125 211.3125 L 181.433594 211.3125 Z M 181.433594 2.875 " clip-rule="nonzero"/></clipPath><clipPath id="cb4f44daf4"><rect x="0" width="214" y="0" height="241"/></clipPath><clipPath id="ad506ac69d"><path d="M 153.824219 2.804688 L 240.832031 2.804688 L 240.832031 244.308594 L 153.824219 244.308594 Z M 153.824219 2.804688 " clip-rule="nonzero"/></clipPath><clipPath id="2ccdeb134e"><rect x="0" width="243" y="0" height="274"/></clipPath><clipPath id="5019290a67"><path d="M 92.371094 39.964844 L 213.09375 39.964844 L 213.09375 345.3125 L 92.371094 345.3125 Z M 92.371094 39.964844 " clip-rule="nonzero"/></clipPath><mask id="2aadcb44d1"><g filter="url(#1933be0a0b)"><rect x="-37.5" width="450" fill="#000000" y="-37.499999" height="449.999989" fill-opacity="0.302"/></g></mask><clipPath id="ef61ff8947"><path d="M 0.371094 0.964844 L 121.09375 0.964844 L 121.09375 306.3125 L 0.371094 306.3125 Z M 0.371094 0.964844 " clip-rule="nonzero"/></clipPath><clipPath id="e11c740514"><rect x="0" width="122" y="0" height="307"/></clipPath><clipPath id="6b03f520c9"><path d="M 26 80 L 186 80 L 186 346 L 26 346 Z M 26 80 " clip-rule="nonzero"/></clipPath><clipPath id="9c56382af4"><path d="M 29.671875 185.152344 C 16.433594 242.503906 46.023438 302.003906 95.425781 317.367188 L 95.476562 317.386719 L 185.25 345.3125 L 119.496094 268.972656 C 112.28125 260.597656 106.507812 251.167969 102.175781 241.089844 C 84.769531 200.644531 90.546875 149.914062 119.496094 116.300781 L 129.667969 104.492188 L 53.742188 80.875 Z M 29.671875 185.152344 " clip-rule="nonzero"/></clipPath><linearGradient x1="0.186609" gradientTransform="matrix(0, 31.270354, 31.270398, 0, 85.102297, 75.038388)" y1="0" x2="8.643141" gradientUnits="userSpaceOnUse" y2="0" id="73fc179ac8"><stop stop-opacity="1" stop-color="rgb(21.014404%, 75.979614%, 58.56781%)" offset="0"/><stop stop-opacity="1" stop-color="rgb(20.433044%, 74.153137%, 59.977722%)" offset="0.00390625"/><stop stop-opacity="1" stop-color="rgb(19.851685%, 72.32666%, 61.38916%)" offset="0.0078125"/><stop stop-opacity="1" stop-color="rgb(19.270325%, 70.498657%, 62.799072%)" offset="0.0117188"/><stop stop-opacity="1" stop-color="rgb(18.688965%, 68.67218%, 64.208984%)" offset="0.015625"/><stop stop-opacity="1" stop-color="rgb(18.107605%, 66.845703%, 65.618896%)" offset="0.0195312"/><stop stop-opacity="1" stop-color="rgb(17.526245%, 65.019226%, 67.030334%)" offset="0.0234375"/><stop stop-opacity="1" stop-color="rgb(16.944885%, 63.192749%, 68.440247%)" offset="0.0273438"/><stop stop-opacity="1" stop-color="rgb(16.363525%, 61.366272%, 69.851685%)" offset="0.03125"/><stop stop-opacity="1" stop-color="rgb(15.782166%, 59.538269%, 71.261597%)" offset="0.0351563"/><stop stop-opacity="1" stop-color="rgb(15.200806%, 57.711792%, 72.673035%)" offset="0.0390625"/><stop stop-opacity="1" stop-color="rgb(14.619446%, 55.885315%, 74.082947%)" offset="0.0429688"/><stop stop-opacity="1" stop-color="rgb(14.038086%, 54.058838%, 75.494385%)" offset="0.046875"/><stop stop-opacity="1" stop-color="rgb(13.456726%, 52.232361%, 76.904297%)" offset="0.0507813"/><stop stop-opacity="1" stop-color="rgb(12.875366%, 50.405884%, 78.314209%)" offset="0.0546875"/><stop stop-opacity="1" stop-color="rgb(12.294006%, 48.577881%, 79.724121%)" offset="0.0585938"/><stop stop-opacity="1" stop-color="rgb(11.712646%, 46.751404%, 81.135559%)" offset="0.0625"/><stop stop-opacity="1" stop-color="rgb(11.131287%, 44.924927%, 82.545471%)" offset="0.0664063"/><stop stop-opacity="1" stop-color="rgb(10.549927%, 43.09845%, 83.956909%)" offset="0.0703125"/><stop stop-opacity="1" stop-color="rgb(9.968567%, 41.271973%, 85.366821%)" offset="0.0742188"/><stop stop-opacity="1" stop-color="rgb(9.387207%, 39.445496%, 86.778259%)" offset="0.078125"/><stop stop-opacity="1" stop-color="rgb(8.805847%, 37.617493%, 88.188171%)" offset="0.0820313"/><stop stop-opacity="1" stop-color="rgb(8.224487%, 35.791016%, 89.599609%)" offset="0.0859375"/><stop stop-opacity="1" stop-color="rgb(7.643127%, 33.964539%, 91.009521%)" offset="0.0898438"/><stop stop-opacity="1" stop-color="rgb(7.061768%, 32.138062%, 92.419434%)" offset="0.09375"/><stop stop-opacity="1" stop-color="rgb(6.880188%, 31.568909%, 92.858887%)" offset="0.0976563"/><stop stop-opacity="1" stop-color="rgb(6.698608%, 30.999756%, 93.299866%)" offset="0.101563"/><stop stop-opacity="1" stop-color="rgb(6.698608%, 30.999756%, 93.299866%)" offset="0.109375"/><stop stop-opacity="1" stop-color="rgb(6.698608%, 30.999756%, 93.299866%)" offset="0.125"/><stop stop-opacity="1" stop-color="rgb(6.698608%, 30.999756%, 93.299866%)" offset="0.25"/><stop stop-opacity="1" stop-color="rgb(6.698608%, 30.999756%, 93.299866%)" offset="0.5"/><stop stop-opacity="1" stop-color="rgb(6.698608%, 30.999756%, 93.299866%)" offset="1"/></linearGradient><clipPath id="165f40996a"><path d="M 184 343 L 186 343 L 186 346 L 184 346 Z M 184 343 " clip-rule="nonzero"/></clipPath><clipPath id="1d24f7b638"><path d="M 185.25 345.3125 L 185.597656 343.808594 L 184.738281 343.070312 Z M 185.25 345.3125 " clip-rule="nonzero"/></clipPath><clipPath id="ab4f6e1b1a"><path d="M 185 343 L 187 343 L 187 346 L 185 346 Z M 185 343 " clip-rule="nonzero"/></clipPath><clipPath id="cef3030176"><path d="M 185.25 345.3125 L 186.148438 344.269531 L 185.597656 343.808594 Z M 185.25 345.3125 " clip-rule="nonzero"/></clipPath><clipPath id="dea13c6c77"><path d="M 185 344 L 187 344 L 187 346 L 185 346 Z M 185 344 " clip-rule="nonzero"/></clipPath><clipPath id="3d4301b0b7"><path d="M 185.25 345.3125 L 186.804688 344.828125 L 186.148438 344.269531 Z M 185.25 345.3125 " clip-rule="nonzero"/></clipPath><clipPath id="97d5f9c932"><path d="M 83.511719 0.835938 L 179.925781 0.835938 L 179.925781 239.125 L 83.511719 239.125 Z M 83.511719 0.835938 " clip-rule="nonzero"/></clipPath><clipPath id="dd9e4ed160"><rect x="0" width="182" y="0" height="275"/></clipPath><clipPath id="12688784cc"><path d="M 26.511719 80.875 L 185.253906 80.875 L 185.253906 345.3125 L 26.511719 345.3125 Z M 26.511719 80.875 " clip-rule="nonzero"/></clipPath><mask id="82f81e4d0b"><g filter="url(#1933be0a0b)"><rect x="-37.5" width="450" fill="#000000" y="-37.499999" height="449.999989" fill-opacity="0.302"/></g></mask><clipPath id="89f94b5270"><path d="M 0.511719 0.875 L 159.253906 0.875 L 159.253906 265.3125 L 0.511719 265.3125 Z M 0.511719 0.875 " clip-rule="nonzero"/></clipPath><clipPath id="e3bd2cc9d5"><rect x="0" width="160" y="0" height="266"/></clipPath><clipPath id="0a76bd8c8b"><path d="M 242.457031 80.871094 L 343.992188 80.871094 L 343.992188 276.265625 L 242.457031 276.265625 Z M 242.457031 80.871094 " clip-rule="nonzero"/></clipPath><mask id="a4b6c47077"><g filter="url(#1933be0a0b)"><rect x="-37.5" width="450" fill="#000000" y="-37.499999" height="449.999989" fill-opacity="0.4"/></g></mask><clipPath id="731abb5d78"><path d="M 0.457031 0.871094 L 101.992188 0.871094 L 101.992188 196.265625 L 0.457031 196.265625 Z M 0.457031 0.871094 " clip-rule="nonzero"/></clipPath><clipPath id="cf2aa5e183"><rect x="0" width="102" y="0" height="197"/></clipPath><clipPath id="ef1bfb9cf6"><path d="M 26.515625 80.871094 L 129.667969 80.871094 L 129.667969 225.902344 L 26.515625 225.902344 Z M 26.515625 80.871094 " clip-rule="nonzero"/></clipPath><mask id="180e1d2400"><g filter="url(#1933be0a0b)"><rect x="-37.5" width="450" fill="#000000" y="-37.499999" height="449.999989" fill-opacity="0.4"/></g></mask><clipPath id="4a1c65c3be"><path d="M 0.515625 0.871094 L 103.667969 0.871094 L 103.667969 145.902344 L 0.515625 145.902344 Z M 0.515625 0.871094 " clip-rule="nonzero"/></clipPath><clipPath id="efef964235"><rect x="0" width="104" y="0" height="146"/></clipPath><clipPath id="2886d117f4"><path d="M 132.230469 39.964844 L 240.832031 39.964844 L 240.832031 252.5 L 132.230469 252.5 Z M 132.230469 39.964844 " clip-rule="nonzero"/></clipPath><mask id="c5bdae4fec"><g filter="url(#1933be0a0b)"><rect x="-37.5" width="450" fill="#000000" y="-37.499999" height="449.999989" fill-opacity="0.4"/></g></mask><clipPath id="b2325cf1c4"><path d="M 0.230469 0.964844 L 108.832031 0.964844 L 108.832031 213.5 L 0.230469 213.5 Z M 0.230469 0.964844 " clip-rule="nonzero"/></clipPath><clipPath id="f78520d43a"><rect x="0" width="109" y="0" height="214"/></clipPath><clipPath id="f134ec5015"><path d="M 158.023438 136.875 L 185.253906 136.875 L 185.253906 345.3125 L 158.023438 345.3125 Z M 158.023438 136.875 " clip-rule="nonzero"/></clipPath><mask id="7d7b5478b0"><g filter="url(#1933be0a0b)"><rect x="-37.5" width="450" fill="#000000" y="-37.499999" height="449.999989" fill-opacity="0.251"/></g></mask><clipPath id="bd0fcfa25f"><path d="M 0.0234375 0.875 L 27.253906 0.875 L 27.253906 209.3125 L 0.0234375 209.3125 Z M 0.0234375 0.875 " clip-rule="nonzero"/></clipPath><clipPath id="d7ee95765a"><rect x="0" width="28" y="0" height="210"/></clipPath><clipPath id="4a33e8a8b1"><path d="M 169.113281 141.429688 L 205.84375 141.429688 L 205.84375 267.890625 L 169.113281 267.890625 Z M 169.113281 141.429688 " clip-rule="nonzero"/></clipPath><mask id="d6f655f5ef"><g filter="url(#1933be0a0b)"><rect x="-37.5" width="450" fill="#000000" y="-37.499999" height="449.999989" fill-opacity="0.4"/></g></mask><clipPath id="a89ed138c8"><path d="M 0.113281 0.429688 L 36.84375 0.429688 L 36.84375 126.890625 L 0.113281 126.890625 Z M 0.113281 0.429688 " clip-rule="nonzero"/></clipPath><clipPath id="a870b69225"><rect x="0" width="37" y="0" height="127"/></clipPath><clipPath id="2eac7824a6"><path d="M 185.253906 104.492188 L 278.128906 104.492188 L 278.128906 223.273438 L 185.253906 223.273438 Z M 185.253906 104.492188 " clip-rule="nonzero"/></clipPath><mask id="1c2561e813"><g filter="url(#1933be0a0b)"><rect x="-37.5" width="450" fill="#000000" y="-37.499999" height="449.999989" fill-opacity="0.4"/></g></mask><clipPath id="05085528e5"><path d="M 0.253906 0.492188 L 93.128906 0.492188 L 93.128906 119.273438 L 0.253906 119.273438 Z M 0.253906 0.492188 " clip-rule="nonzero"/></clipPath><clipPath id="5737fb6d7c"><rect x="0" width="94" y="0" height="120"/></clipPath><clipPath id="ec5c791a7c"><path d="M 185.253906 2.492188 L 243.054688 2.492188 L 243.054688 37.230469 L 185.253906 37.230469 Z M 185.253906 2.492188 " clip-rule="nonzero"/></clipPath><clipPath id="af7d9c78c9"><rect x="0" width="245" y="0" height="273"/></clipPath></defs><g clip-path="url(#4b15944d69)"><g clip-path="url(#420989a0fc)"><path fill="url(#82a00f2b5a)" d="M 84.769531 39.964844 L 240.832031 39.964844 L 240.832031 345.3125 L 84.769531 345.3125 Z M 84.769531 39.964844 " fill-rule="nonzero"/></g></g><g clip-path="url(#cc0f258bb7)"><g clip-path="url(#2dacb15d04)"><path fill="url(#4c739fc0ea)" d="M 16.433594 80.875 L 185.25 80.875 L 185.25 345.3125 L 16.433594 345.3125 Z M 16.433594 80.875 " fill-rule="nonzero"/></g></g><path fill="#dc8add" d="M 185.203125 136.929688 C 162.632812 163.363281 152.328125 202.675781 161.183594 241.03125 L 185.25 345.3125 L 209.320312 241.03125 C 218.175781 202.648438 207.859375 163.304688 185.25 136.875 Z M 185.203125 136.929688 " fill-opacity="1" fill-rule="nonzero"/><g clip-path="url(#75d9e2d5e9)"><g clip-path="url(#8da0fb58ed)"><path fill="url(#6672667047)" d="M 285.734375 345.3125 L 185.25 345.3125 L 185.25 104.492188 L 285.734375 104.492188 Z M 285.734375 345.3125 " fill-rule="nonzero"/></g></g><g transform="matrix(1, 0, 0, 1, 0, 103)"><g clip-path="url(#170518c025)"><g clip-path="url(#92292e5201)"><path fill="#000000" d="M 268.328125 138.089844 C 285.734375 97.648438 279.960938 46.914062 251.007812 13.300781 L 240.832031 1.492188 L 228.261719 5.402344 C 244.625 22.382812 277.925781 63.96875 264.621094 110.089844 C 247.234375 170.347656 195.3125 228.382812 185.257812 242.300781 L 251.007812 165.972656 C 258.21875 157.601562 263.992188 148.167969 268.328125 138.089844 " fill-opacity="1" fill-rule="nonzero"/></g></g></g><path fill="#33d17a" d="M 240.832031 104.492188 L 251.003906 116.304688 C 279.960938 149.914062 285.734375 200.652344 268.328125 241.089844 C 263.992188 251.167969 258.21875 260.601562 251.003906 268.972656 L 185.25 345.3125 L 275.023438 317.386719 L 275.078125 317.367188 C 324.476562 302 354.070312 242.503906 340.832031 185.152344 L 316.761719 80.875 Z M 240.832031 104.492188 " fill-opacity="1" fill-rule="nonzero"/><g clip-path="url(#7643689bda)"><g mask="url(#130255e70d)"><g transform="matrix(1, 0, 0, 1, 186, 90)"><g clip-path="url(#14e9308fb1)"><g clip-path="url(#05bf3e3b39)"><path fill="#dcc6e0" d="M 111.210938 163.132812 C 144.855469 114.476562 98.984375 0.757812 98.984375 0.757812 L 59.617188 13.003906 L 54.832031 14.492188 L 61.054688 21.714844 L 65.007812 26.300781 C 93.960938 59.914062 99.734375 110.652344 82.324219 151.089844 C 77.992188 161.164062 72.21875 170.601562 65.007812 178.972656 L 0.148438 254.273438 L 0.191406 254.3125 L 0.523438 254.589844 C 8.9375 249.78125 57.242188 221.511719 91.46875 186.617188 C 98.898438 179.042969 105.660156 171.160156 111.210938 163.132812 " fill-opacity="1" fill-rule="nonzero"/></g></g></g></g></g><g clip-path="url(#bc290b2075)"><g mask="url(#e3108eb8a7)"><g transform="matrix(1, 0, 0, 1, 185, 115)"><g clip-path="url(#c88bb22986)"><g clip-path="url(#1768209708)"><path fill="#ffbcd8" d="M 25.65625 0.828125 C 16.070312 6.199219 7.523438 13.367188 0.253906 21.875 C 22.859375 48.304688 33.179688 87.648438 24.316406 126.03125 L 0.253906 230.308594 L 7.03125 222.433594 C 19.867188 190.644531 48.203125 115.660156 51.925781 76.117188 C 54.667969 46.988281 37.503906 17.417969 25.65625 0.828125 " fill-opacity="1" fill-rule="nonzero"/></g></g></g></g></g><g transform="matrix(1, 0, 0, 1, 0, 100)"><g clip-path="url(#af76644cdd)"><g clip-path="url(#2d144be6a7)"><path fill="#dcc6e0" d="M 251.007812 16.304688 C 279.960938 49.917969 285.734375 100.652344 268.328125 141.09375 C 263.992188 151.167969 258.21875 160.601562 251.007812 168.976562 L 185.253906 245.3125 L 253.960938 172.410156 C 260.53125 164.777344 266.121094 156.113281 270.550781 146.644531 C 271.074219 145.527344 271.578125 144.402344 272.070312 143.265625 C 290.695312 99.984375 283.53125 47.199219 253.960938 12.871094 L 245.617188 3.003906 L 240.832031 4.492188 Z M 251.007812 16.304688 " fill-opacity="1" fill-rule="nonzero"/></g></g></g><g transform="matrix(1, 0, 0, 1, 0, 131)"><g clip-path="url(#372c95a2f9)"><g clip-path="url(#99ee1a73f1)"><path fill="#ffbcd8" d="M 203.605469 27.183594 C 199.382812 18.089844 194.21875 9.722656 188.25 2.519531 C 187.230469 3.613281 186.230469 4.730469 185.25 5.875 C 207.859375 32.308594 218.179688 71.652344 209.320312 110.03125 L 185.25 214.3125 L 213.515625 111.335938 C 219.835938 83.953125 215.449219 52.703125 203.605469 27.183594 " fill-opacity="1" fill-rule="nonzero"/></g></g></g><g transform="matrix(1, 0, 0, 1, 0, 134)"><g clip-path="url(#cb4f44daf4)"><g clip-path="url(#4c5b2eff7b)"><path fill="#870000" d="M 184.222656 206.84375 L 185.253906 211.3125 C 202.171875 144.480469 236.914062 61.617188 185.253906 2.875 C 185.234375 2.894531 185.21875 2.910156 185.203125 2.929688 C 183.289062 5.171875 183.167969 4.890625 181.433594 7.308594 C 228.589844 47.0625 194.78125 173.351562 184.222656 206.84375 " fill-opacity="1" fill-rule="nonzero"/></g></g></g><g transform="matrix(1, 0, 0, 1, 0, 101)"><g clip-path="url(#2ccdeb134e)"><g clip-path="url(#ad506ac69d)"><path fill="#ecf955" d="M 161.183594 140.03125 C 152.816406 103.796875 161.550781 66.703125 181.574219 40.429688 C 181.527344 40.386719 181.480469 40.347656 181.433594 40.304688 C 183.0625 38.03125 183.265625 38.148438 184.875 36.308594 L 185.203125 35.925781 L 185.253906 35.871094 C 186.230469 34.730469 187.230469 33.613281 188.25 32.519531 C 198.917969 21.109375 212.027344 12.453125 226.9375 7.8125 L 228.261719 7.402344 L 240.832031 3.492188 L 240.242188 2.800781 L 225.84375 3.070312 C 209.289062 8.222656 194.371094 18.339844 182.257812 32.398438 L 182.210938 32.453125 C 175.382812 40.382812 169.707031 49.375 165.273438 59.066406 C 153.882812 83.953125 150.667969 113.441406 157.097656 141.300781 L 185.253906 244.304688 L 184.222656 239.839844 Z M 161.183594 140.03125 " fill-opacity="1" fill-rule="nonzero"/></g></g></g><g clip-path="url(#5019290a67)"><g mask="url(#2aadcb44d1)"><g transform="matrix(1, 0, 0, 1, 92, 39)"><g clip-path="url(#e11c740514)"><g clip-path="url(#ef61ff8947)"><path fill="#ecf955" d="M 92.738281 304.078125 L 92.738281 304.074219 Z M 121.09375 33.289062 L 93.253906 0.964844 L 37.667969 65.492188 L 27.496094 77.304688 C -1.457031 110.914062 -7.230469 161.648438 10.175781 202.089844 C 14.507812 212.167969 20.285156 221.601562 27.496094 229.972656 L 93.253906 306.3125 L 92.738281 304.074219 C 92.722656 304.054688 8.566406 190.832031 30.40625 126.417969 C 30.40625 126.417969 56.699219 64.242188 121.09375 33.289062 " fill-opacity="1" fill-rule="nonzero"/></g></g></g></g></g><g clip-path="url(#6b03f520c9)"><g clip-path="url(#9c56382af4)"><path fill="url(#73fc179ac8)" d="M 16.433594 80.875 L 185.25 80.875 L 185.25 345.3125 L 16.433594 345.3125 Z M 16.433594 80.875 " fill-rule="nonzero"/></g></g><g clip-path="url(#165f40996a)"><g clip-path="url(#1d24f7b638)"><path fill="#ff2966" d="M 185.597656 345.3125 L 184.738281 345.3125 L 184.738281 343.070312 L 185.597656 343.070312 Z M 185.597656 345.3125 " fill-opacity="1" fill-rule="nonzero"/></g></g><g clip-path="url(#ab4f6e1b1a)"><g clip-path="url(#cef3030176)"><path fill="#5e17a9" d="M 186.148438 345.3125 L 185.25 345.3125 L 185.25 343.808594 L 186.148438 343.808594 Z M 186.148438 345.3125 " fill-opacity="1" fill-rule="nonzero"/></g></g><path fill="#000000" d="M 186.070312 344.207031 C 185.777344 344.59375 185.5 344.96875 185.257812 345.300781 L 186.148438 344.269531 Z M 186.070312 344.207031 " fill-opacity="1" fill-rule="nonzero"/><g clip-path="url(#dea13c6c77)"><g clip-path="url(#3d4301b0b7)"><path fill="#0049e7" d="M 186.804688 345.3125 L 185.25 345.3125 L 185.25 344.269531 L 186.804688 344.269531 Z M 186.804688 345.3125 " fill-opacity="1" fill-rule="nonzero"/></g></g><path fill="#99c1f1" d="M 186.148438 344.269531 L 185.253906 345.3125 L 186.195312 344.3125 Z M 186.148438 344.269531 " fill-opacity="1" fill-rule="nonzero"/><path fill="#99c1f1" d="M 185.597656 343.804688 L 185.253906 345.308594 L 185.652344 343.851562 Z M 185.597656 343.804688 " fill-opacity="1" fill-rule="nonzero"/><path fill="#99c1f1" d="M 184.734375 343.074219 L 185.25 345.3125 L 185.621094 343.828125 L 184.734375 343.078125 Z M 184.734375 343.074219 " fill-opacity="1" fill-rule="nonzero"/><path fill="#99c1f1" d="M 184.585938 342.871094 L 185.25 345.3125 L 184.738281 343.078125 Z M 184.585938 342.871094 " fill-opacity="1" fill-rule="nonzero"/><g transform="matrix(1, 0, 0, 1, 0, 100)"><g clip-path="url(#dd9e4ed160)"><g clip-path="url(#97d5f9c932)"><path fill="#dc8add" d="M 117.921875 0.835938 C 117.921875 0.835938 55.109375 60.320312 99.21875 148.683594 C 103.304688 156.871094 108.304688 165.300781 114.363281 173.957031 L 179.925781 239.125 L 119.5 168.972656 C 112.285156 160.597656 106.511719 151.164062 102.175781 141.089844 C 84.769531 100.648438 90.542969 49.910156 119.5 16.300781 L 129.667969 4.492188 Z M 117.921875 0.835938 " fill-opacity="1" fill-rule="nonzero"/></g></g></g><g clip-path="url(#12688784cc)"><g mask="url(#82f81e4d0b)"><g transform="matrix(1, 0, 0, 1, 26, 80)"><g clip-path="url(#e3bd2cc9d5)"><g clip-path="url(#89f94b5270)"><path fill="#dc8add" d="M 66.492188 204.089844 C -1.207031 139.785156 52.433594 8.554688 52.433594 8.554688 L 27.742188 0.875 L 3.675781 105.152344 C -9.5625 162.503906 20.023438 222.003906 69.429688 237.367188 L 69.480469 237.386719 L 159.253906 265.3125 L 159.234375 265.289062 Z M 66.492188 204.089844 " fill-opacity="1" fill-rule="nonzero"/></g></g></g></g></g><g clip-path="url(#0a76bd8c8b)"><g mask="url(#a4b6c47077)"><g transform="matrix(1, 0, 0, 1, 242, 80)"><g clip-path="url(#cf2aa5e183)"><g clip-path="url(#731abb5d78)"><path fill="#99c1f1" d="M 84.277344 196.265625 C 100.082031 170.8125 106.332031 137.636719 98.832031 105.152344 L 74.761719 0.875 L 2.996094 23.199219 C 2.121094 24.28125 1.269531 25.34375 0.457031 26.378906 L 9.007812 36.304688 C 19.742188 48.765625 27.292969 63.585938 31.652344 79.359375 C 57.703125 104.800781 85.246094 144.136719 84.277344 196.265625 " fill-opacity="1" fill-rule="nonzero"/></g></g></g></g></g><g clip-path="url(#ef1bfb9cf6)"><g mask="url(#180e1d2400)"><g transform="matrix(1, 0, 0, 1, 26, 80)"><g clip-path="url(#efef964235)"><g clip-path="url(#4a1c65c3be)"><path fill="#dc8add" d="M 78.054688 60.054688 C 82.132812 51.527344 87.28125 43.519531 93.496094 36.300781 L 103.667969 24.492188 L 27.742188 0.871094 L 3.671875 105.152344 C 0.515625 118.824219 -0.199219 132.613281 1.199219 145.898438 C 16.398438 98.875 51.824219 73.167969 78.054688 60.054688 " fill-opacity="1" fill-rule="nonzero"/></g></g></g></g></g><g clip-path="url(#2886d117f4)"><g mask="url(#c5bdae4fec)"><g transform="matrix(1, 0, 0, 1, 132, 39)"><g clip-path="url(#f78520d43a)"><g clip-path="url(#b2325cf1c4)"><path fill="#99c1f1" d="M 53.253906 97.875 C 64.425781 84.808594 78.597656 74.894531 94.9375 69.8125 L 108.832031 65.492188 L 53.253906 0.964844 L 3.890625 58.269531 C -3.46875 108.910156 -2.285156 170.324219 31.832031 213.5 L 29.183594 202.03125 C 20.332031 163.675781 30.632812 124.363281 53.203125 97.925781 Z M 53.253906 97.875 " fill-opacity="1" fill-rule="nonzero"/></g></g></g></g></g><g clip-path="url(#f134ec5015)"><g mask="url(#7d7b5478b0)"><g transform="matrix(1, 0, 0, 1, 158, 136)"><g clip-path="url(#d7ee95765a)"><g clip-path="url(#bd0fcfa25f)"><path fill="#99c1f1" d="M 27.203125 0.929688 C 4.632812 27.363281 -5.671875 66.675781 3.183594 105.03125 L 27.25 209.3125 L 27.25 0.875 Z M 27.203125 0.929688 " fill-opacity="1" fill-rule="nonzero"/></g></g></g></g></g><g clip-path="url(#4a33e8a8b1)"><g mask="url(#d6f655f5ef)"><g transform="matrix(1, 0, 0, 1, 169, 141)"><g clip-path="url(#a870b69225)"><g clip-path="url(#a89ed138c8)"><path fill="#99c1f1" d="M 0.113281 21.214844 C 0.113281 21.214844 33.492188 61.914062 32.332031 126.890625 C 39.855469 79.476562 40.78125 24.394531 12.574219 0.429688 C 7.734375 6.78125 3.554688 13.765625 0.113281 21.214844 " fill-opacity="1" fill-rule="nonzero"/></g></g></g></g></g><g clip-path="url(#2eac7824a6)"><g mask="url(#1c2561e813)"><g transform="matrix(1, 0, 0, 1, 185, 104)"><g clip-path="url(#5737fb6d7c)"><g clip-path="url(#05085528e5)"><path fill="#99c1f1" d="M 16.144531 57.699219 C 37.226562 64.265625 71.207031 80.503906 89.347656 119.273438 C 98.621094 82.550781 90.835938 41.128906 66.003906 12.300781 L 55.832031 0.492188 L 41.9375 4.8125 C 25.59375 9.894531 11.425781 19.808594 0.25 32.875 C 6.554688 40.242188 11.902344 48.621094 16.144531 57.699219 " fill-opacity="1" fill-rule="nonzero"/></g></g></g></g></g><g transform="matrix(1, 0, 0, 1, 0, 102)"><g clip-path="url(#af7d9c78c9)"><g clip-path="url(#ec5c791a7c)"><path fill="#99c1f1" d="M 243.054688 5.070312 L 240.832031 2.492188 L 226.9375 6.816406 C 210.59375 11.898438 196.425781 21.808594 185.25 34.875 C 185.914062 35.648438 186.566406 36.433594 187.207031 37.230469 C 198.328125 24.359375 212.378906 14.589844 228.558594 9.554688 L 242.457031 5.234375 Z M 243.054688 5.070312 " fill-opacity="1" fill-rule="nonzero"/></g></g></g></svg>