<svg xmlns="http://www.w3.org/2000/svg" xmlns:xlink="http://www.w3.org/1999/xlink" width="3779" zoomAndPan="magnify" viewBox="0 0 2835 1417.499962" height="1889" preserveAspectRatio="xMidYMid meet" version="1.0"><defs><filter x="0%" y="0%" width="100%" height="100%" id="3e966b65a2"><feColorMatrix values="0 0 0 0 1 0 0 0 0 1 0 0 0 0 1 0 0 0 1 0" color-interpolation-filters="sRGB"/></filter><clipPath id="cc715e9ef1"><path d="M 1057 151 L 1619 151 L 1619 1305 L 1057 1305 Z M 1057 151 " clip-rule="nonzero"/></clipPath><clipPath id="5db495cf05"><path d="M 1198.886719 394.84375 L 1160.445312 439.46875 C 1051.042969 566.476562 1029.226562 758.191406 1094.996094 911.003906 C 1111.375 949.074219 1133.191406 984.714844 1160.445312 1016.359375 L 1408.910156 1304.820312 L 1317.976562 910.773438 C 1284.523438 765.84375 1323.449219 617.296875 1408.734375 517.410156 L 1408.910156 517.199219 L 1408.910156 517.1875 C 1451.144531 467.828125 1504.6875 430.375 1566.433594 411.167969 L 1618.933594 394.84375 L 1408.910156 151.015625 Z M 1198.886719 394.84375 " clip-rule="nonzero"/></clipPath><linearGradient x1="-0.547521" gradientTransform="matrix(0, 168.488704, 168.488964, 0, 1059.32447, 243.268195)" y1="0" x2="6.300437" gradientUnits="userSpaceOnUse" y2="0" id="9d219b92a0"><stop stop-opacity="1" stop-color="rgb(100%, 100%, 0%)" offset="0"/><stop stop-opacity="1" stop-color="rgb(100%, 100%, 0%)" offset="0.0625"/><stop stop-opacity="1" stop-color="rgb(100%, 100%, 0%)" offset="0.078125"/><stop stop-opacity="1" stop-color="rgb(97.950745%, 99.075317%, 0.392151%)" offset="0.0820313"/><stop stop-opacity="1" stop-color="rgb(95.901489%, 98.150635%, 0.785828%)" offset="0.0859375"/><stop stop-opacity="1" stop-color="rgb(93.226624%, 96.943665%, 1.298523%)" offset="0.0898438"/><stop stop-opacity="1" stop-color="rgb(90.551758%, 95.73822%, 1.812744%)" offset="0.09375"/><stop stop-opacity="1" stop-color="rgb(87.876892%, 94.53125%, 2.325439%)" offset="0.0976563"/><stop stop-opacity="1" stop-color="rgb(85.202026%, 93.325806%, 2.839661%)" offset="0.101563"/><stop stop-opacity="1" stop-color="rgb(82.527161%, 92.118835%, 3.353882%)" offset="0.105469"/><stop stop-opacity="1" stop-color="rgb(79.852295%, 90.913391%, 3.868103%)" offset="0.109375"/><stop stop-opacity="1" stop-color="rgb(77.177429%, 89.706421%, 4.380798%)" offset="0.113281"/><stop stop-opacity="1" stop-color="rgb(74.502563%, 88.499451%, 4.89502%)" offset="0.117188"/><stop stop-opacity="1" stop-color="rgb(71.826172%, 87.29248%, 5.407715%)" offset="0.121094"/><stop stop-opacity="1" stop-color="rgb(69.151306%, 86.087036%, 5.921936%)" offset="0.125"/><stop stop-opacity="1" stop-color="rgb(66.47644%, 84.880066%, 6.434631%)" offset="0.128906"/><stop stop-opacity="1" stop-color="rgb(63.801575%, 83.674622%, 6.948853%)" offset="0.132813"/><stop stop-opacity="1" stop-color="rgb(61.126709%, 82.467651%, 7.461548%)" offset="0.136719"/><stop stop-opacity="1" stop-color="rgb(58.451843%, 81.260681%, 7.975769%)" offset="0.140625"/><stop stop-opacity="1" stop-color="rgb(55.776978%, 80.053711%, 8.48999%)" offset="0.144531"/><stop stop-opacity="1" stop-color="rgb(53.102112%, 78.848267%, 9.004211%)" offset="0.148438"/><stop stop-opacity="1" stop-color="rgb(50.427246%, 77.641296%, 9.516907%)" offset="0.152344"/><stop stop-opacity="1" stop-color="rgb(47.75238%, 76.435852%, 10.031128%)" offset="0.15625"/><stop stop-opacity="1" stop-color="rgb(45.077515%, 75.228882%, 10.543823%)" offset="0.160156"/><stop stop-opacity="1" stop-color="rgb(42.402649%, 74.023438%, 11.058044%)" offset="0.164063"/><stop stop-opacity="1" stop-color="rgb(39.726257%, 72.816467%, 11.57074%)" offset="0.167969"/><stop stop-opacity="1" stop-color="rgb(37.051392%, 71.609497%, 12.084961%)" offset="0.171875"/><stop stop-opacity="1" stop-color="rgb(34.376526%, 70.402527%, 12.597656%)" offset="0.175781"/><stop stop-opacity="1" stop-color="rgb(31.70166%, 69.197083%, 13.111877%)" offset="0.179688"/><stop stop-opacity="1" stop-color="rgb(29.026794%, 67.990112%, 13.624573%)" offset="0.183594"/><stop stop-opacity="1" stop-color="rgb(26.351929%, 66.784668%, 14.138794%)" offset="0.1875"/><stop stop-opacity="1" stop-color="rgb(23.677063%, 65.577698%, 14.653015%)" offset="0.191406"/><stop stop-opacity="1" stop-color="rgb(21.002197%, 64.372253%, 15.167236%)" offset="0.195313"/><stop stop-opacity="1" stop-color="rgb(18.327332%, 63.165283%, 15.679932%)" offset="0.199219"/><stop stop-opacity="1" stop-color="rgb(15.652466%, 61.958313%, 16.194153%)" offset="0.203125"/><stop stop-opacity="1" stop-color="rgb(12.9776%, 60.751343%, 16.706848%)" offset="0.207031"/><stop stop-opacity="1" stop-color="rgb(10.302734%, 59.545898%, 17.221069%)" offset="0.210938"/><stop stop-opacity="1" stop-color="rgb(7.627869%, 58.338928%, 17.733765%)" offset="0.214844"/><stop stop-opacity="1" stop-color="rgb(4.953003%, 57.133484%, 18.247986%)" offset="0.21875"/><stop stop-opacity="1" stop-color="rgb(2.476501%, 56.016541%, 18.722534%)" offset="0.222656"/><stop stop-opacity="1" stop-color="rgb(0%, 54.899597%, 19.198608%)" offset="0.226563"/><stop stop-opacity="1" stop-color="rgb(0%, 54.899597%, 19.198608%)" offset="0.234375"/><stop stop-opacity="1" stop-color="rgb(0%, 54.899597%, 19.198608%)" offset="0.25"/><stop stop-opacity="1" stop-color="rgb(0%, 54.899597%, 19.198608%)" offset="0.5"/><stop stop-opacity="1" stop-color="rgb(0%, 54.899597%, 19.198608%)" offset="1"/></linearGradient><clipPath id="14d333c63f"><path d="M 809 305 L 1409 305 L 1409 1305 L 809 1305 Z M 809 305 " clip-rule="nonzero"/></clipPath><clipPath id="3b52ce9fa7"><path d="M 821.035156 699.621094 C 771.011719 916.339844 882.824219 1141.167969 1069.496094 1199.226562 L 1069.6875 1199.292969 L 1408.910156 1304.820312 L 1160.445312 1016.359375 C 1133.191406 984.714844 1111.371094 949.074219 1094.996094 911.003906 C 1029.226562 758.191406 1051.042969 566.476562 1160.445312 439.46875 L 1198.886719 394.84375 L 911.976562 305.605469 Z M 821.035156 699.621094 " clip-rule="nonzero"/></clipPath><linearGradient x1="0.186688" gradientTransform="matrix(0, 118.160825, 118.160993, 0, 1030.484664, 283.544517)" y1="0" x2="8.643103" gradientUnits="userSpaceOnUse" y2="0" id="8b26778aba"><stop stop-opacity="1" stop-color="rgb(21.012878%, 75.975037%, 58.570862%)" offset="0"/><stop stop-opacity="1" stop-color="rgb(20.431519%, 74.14856%, 59.980774%)" offset="0.00390625"/><stop stop-opacity="1" stop-color="rgb(19.850159%, 72.322083%, 61.392212%)" offset="0.0078125"/><stop stop-opacity="1" stop-color="rgb(19.268799%, 70.495605%, 62.802124%)" offset="0.0117187"/><stop stop-opacity="1" stop-color="rgb(18.687439%, 68.669128%, 64.213562%)" offset="0.015625"/><stop stop-opacity="1" stop-color="rgb(18.106079%, 66.841125%, 65.623474%)" offset="0.0195312"/><stop stop-opacity="1" stop-color="rgb(17.524719%, 65.014648%, 67.033386%)" offset="0.0234375"/><stop stop-opacity="1" stop-color="rgb(16.943359%, 63.188171%, 68.443298%)" offset="0.0273438"/><stop stop-opacity="1" stop-color="rgb(16.362%, 61.361694%, 69.854736%)" offset="0.03125"/><stop stop-opacity="1" stop-color="rgb(15.78064%, 59.535217%, 71.264648%)" offset="0.0351562"/><stop stop-opacity="1" stop-color="rgb(15.19928%, 57.70874%, 72.676086%)" offset="0.0390625"/><stop stop-opacity="1" stop-color="rgb(14.61792%, 55.880737%, 74.085999%)" offset="0.0429688"/><stop stop-opacity="1" stop-color="rgb(14.03656%, 54.05426%, 75.497437%)" offset="0.046875"/><stop stop-opacity="1" stop-color="rgb(13.4552%, 52.227783%, 76.907349%)" offset="0.0507813"/><stop stop-opacity="1" stop-color="rgb(12.87384%, 50.401306%, 78.317261%)" offset="0.0546875"/><stop stop-opacity="1" stop-color="rgb(12.29248%, 48.574829%, 79.727173%)" offset="0.0585937"/><stop stop-opacity="1" stop-color="rgb(11.711121%, 46.748352%, 81.138611%)" offset="0.0625"/><stop stop-opacity="1" stop-color="rgb(11.129761%, 44.920349%, 82.548523%)" offset="0.0664062"/><stop stop-opacity="1" stop-color="rgb(10.548401%, 43.093872%, 83.959961%)" offset="0.0703125"/><stop stop-opacity="1" stop-color="rgb(9.967041%, 41.267395%, 85.369873%)" offset="0.0742188"/><stop stop-opacity="1" stop-color="rgb(9.385681%, 39.440918%, 86.781311%)" offset="0.078125"/><stop stop-opacity="1" stop-color="rgb(8.804321%, 37.614441%, 88.191223%)" offset="0.0820312"/><stop stop-opacity="1" stop-color="rgb(8.222961%, 35.787964%, 89.601135%)" offset="0.0859375"/><stop stop-opacity="1" stop-color="rgb(7.641602%, 33.959961%, 91.011047%)" offset="0.0898438"/><stop stop-opacity="1" stop-color="rgb(7.060242%, 32.133484%, 92.422485%)" offset="0.09375"/><stop stop-opacity="1" stop-color="rgb(6.878662%, 31.565857%, 92.860413%)" offset="0.0976562"/><stop stop-opacity="1" stop-color="rgb(6.698608%, 30.999756%, 93.299866%)" offset="0.101563"/><stop stop-opacity="1" stop-color="rgb(6.698608%, 30.999756%, 93.299866%)" offset="0.109375"/><stop stop-opacity="1" stop-color="rgb(6.698608%, 30.999756%, 93.299866%)" offset="0.125"/><stop stop-opacity="1" stop-color="rgb(6.698608%, 30.999756%, 93.299866%)" offset="0.25"/><stop stop-opacity="1" stop-color="rgb(6.698608%, 30.999756%, 93.299866%)" offset="0.5"/><stop stop-opacity="1" stop-color="rgb(6.698608%, 30.999756%, 93.299866%)" offset="1"/></linearGradient><clipPath id="4377009dd5"><path d="M 1408 394 L 1760 394 L 1760 1305 L 1408 1305 Z M 1408 394 " clip-rule="nonzero"/></clipPath><clipPath id="a66a61c180"><path d="M 1566.429688 411.167969 C 1504.6875 430.375 1451.144531 467.828125 1408.910156 517.1875 C 1494.339844 617.074219 1533.328125 765.734375 1499.859375 910.773438 L 1408.910156 1304.820312 L 1657.382812 1016.359375 C 1684.636719 984.722656 1706.453125 949.074219 1722.832031 911.003906 C 1788.609375 758.191406 1766.792969 566.476562 1657.382812 439.46875 L 1618.933594 394.84375 Z M 1566.429688 411.167969 " clip-rule="nonzero"/></clipPath><linearGradient x1="-8.386901" gradientTransform="matrix(0, -107.607906, -107.608051, 0, 1090.240204, 402.323906)" y1="0" x2="0.0695003" gradientUnits="userSpaceOnUse" y2="0" id="1d950a3dba"><stop stop-opacity="1" stop-color="rgb(36.898804%, 8.999634%, 66.299438%)" offset="0"/><stop stop-opacity="1" stop-color="rgb(36.898804%, 8.999634%, 66.299438%)" offset="0.5"/><stop stop-opacity="1" stop-color="rgb(36.898804%, 8.999634%, 66.299438%)" offset="0.75"/><stop stop-opacity="1" stop-color="rgb(36.898804%, 8.999634%, 66.299438%)" offset="0.875"/><stop stop-opacity="1" stop-color="rgb(36.898804%, 8.999634%, 66.299438%)" offset="0.9375"/><stop stop-opacity="1" stop-color="rgb(36.898804%, 8.999634%, 66.299438%)" offset="0.96875"/><stop stop-opacity="1" stop-color="rgb(36.898804%, 8.999634%, 66.299438%)" offset="0.984375"/><stop stop-opacity="1" stop-color="rgb(37.007141%, 9.011841%, 66.253662%)" offset="0.992187"/><stop stop-opacity="1" stop-color="rgb(39.199829%, 9.257507%, 65.339661%)" offset="0.996094"/><stop stop-opacity="1" stop-color="rgb(41.28418%, 9.492493%, 64.471436%)" offset="1"/></linearGradient><clipPath id="b681a65874"><path d="M 708.910156 390 L 1767 390 L 1767 1417 L 708.910156 1417 Z M 708.910156 390 " clip-rule="nonzero"/></clipPath><clipPath id="c843274e33"><path d="M 700.933594 4.835938 L 1051.871094 4.835938 L 1051.871094 914.785156 L 700.933594 914.785156 Z M 700.933594 4.835938 " clip-rule="nonzero"/></clipPath><clipPath id="887db2c9f2"><rect x="0" width="1059" y="0" height="1027"/></clipPath><clipPath id="12cbc10daf"><path d="M 1412.304688 342.945312 L 1878.570312 342.945312 L 1878.570312 1302.097656 L 1412.304688 1302.097656 Z M 1412.304688 342.945312 " clip-rule="nonzero"/></clipPath><mask id="4bdaa9cc22"><g filter="url(#3e966b65a2)"><rect x="-283.5" width="3402" fill="#000000" y="-141.749996" height="1700.999955" fill-opacity="0.302"/></g></mask><clipPath id="53c95ec8d5"><path d="M 0.304688 0.945312 L 466.570312 0.945312 L 466.570312 960.097656 L 0.304688 960.097656 Z M 0.304688 0.945312 " clip-rule="nonzero"/></clipPath><clipPath id="72eb994300"><rect x="0" width="467" y="0" height="961"/></clipPath><clipPath id="0a5a2167d2"><path d="M 1408.917969 437.6875 L 1605.277344 437.6875 L 1605.277344 1304.820312 L 1408.917969 1304.820312 Z M 1408.917969 437.6875 " clip-rule="nonzero"/></clipPath><mask id="d663ea525a"><g filter="url(#3e966b65a2)"><rect x="-283.5" width="3402" fill="#000000" y="-141.749996" height="1700.999955" fill-opacity="0.302"/></g></mask><clipPath id="52f8ac7a56"><path d="M 0.917969 0.6875 L 197.277344 0.6875 L 197.277344 867.820312 L 0.917969 867.820312 Z M 0.917969 0.6875 " clip-rule="nonzero"/></clipPath><clipPath id="c37ab07cf3"><rect x="0" width="198" y="0" height="868"/></clipPath><clipPath id="e04499d740"><path d="M 708.910156 380 L 1783 380 L 1783 1417 L 708.910156 1417 Z M 708.910156 380 " clip-rule="nonzero"/></clipPath><clipPath id="266185a289"><path d="M 700.917969 9.222656 L 1067.722656 9.222656 L 1067.722656 924.820312 L 700.917969 924.820312 Z M 700.917969 9.222656 " clip-rule="nonzero"/></clipPath><clipPath id="37e3422b98"><rect x="0" width="1075" y="0" height="1037"/></clipPath><clipPath id="c7df443658"><path d="M 708.910156 496 L 1535 496 L 1535 1417 L 708.910156 1417 Z M 708.910156 496 " clip-rule="nonzero"/></clipPath><clipPath id="7db803d6a0"><path d="M 700.910156 8.53125 L 818.632812 8.53125 L 818.632812 808.820312 L 700.910156 808.820312 Z M 700.910156 8.53125 " clip-rule="nonzero"/></clipPath><clipPath id="d4eb6adf7f"><rect x="0" width="827" y="0" height="921"/></clipPath><clipPath id="6e79ed454d"><path d="M 708.910156 510 L 1517 510 L 1517 1417 L 708.910156 1417 Z M 708.910156 510 " clip-rule="nonzero"/></clipPath><clipPath id="d5998ba8a0"><path d="M 686.480469 7.199219 L 803.695312 7.199219 L 803.695312 794.820312 L 686.480469 794.820312 Z M 686.480469 7.199219 " clip-rule="nonzero"/></clipPath><clipPath id="2d2816baab"><rect x="0" width="809" y="0" height="907"/></clipPath><clipPath id="91fddb0004"><path d="M 708.910156 384 L 1624 384 L 1624 1417 L 708.910156 1417 Z M 708.910156 384 " clip-rule="nonzero"/></clipPath><clipPath id="6963f15551"><path d="M 582.164062 8.242188 L 910.941406 8.242188 L 910.941406 920.800781 L 582.164062 920.800781 Z M 582.164062 8.242188 " clip-rule="nonzero"/></clipPath><clipPath id="8b3a17d86d"><rect x="0" width="916" y="0" height="1033"/></clipPath><clipPath id="bd618c2cef"><path d="M 1057.957031 151.015625 L 1514.121094 151.015625 L 1514.121094 1304.820312 L 1057.957031 1304.820312 Z M 1057.957031 151.015625 " clip-rule="nonzero"/></clipPath><mask id="9fa4f7f029"><g filter="url(#3e966b65a2)"><rect x="-283.5" width="3402" fill="#000000" y="-141.749996" height="1700.999955" fill-opacity="0.302"/></g></mask><clipPath id="85ea46fb7b"><path d="M 0.957031 0.015625 L 457.121094 0.015625 L 457.121094 1153.820312 L 0.957031 1153.820312 Z M 0.957031 0.015625 " clip-rule="nonzero"/></clipPath><clipPath id="13d8a70ce3"><rect x="0" width="458" y="0" height="1154"/></clipPath><clipPath id="1b1e17f487"><path d="M 809 305 L 1409 305 L 1409 1305 L 809 1305 Z M 809 305 " clip-rule="nonzero"/></clipPath><clipPath id="dac20f2639"><path d="M 821.035156 699.632812 C 771.011719 916.339844 882.824219 1141.167969 1069.496094 1199.226562 L 1069.6875 1199.292969 L 1408.910156 1304.820312 L 1160.445312 1016.359375 C 1133.191406 984.714844 1111.371094 949.074219 1094.996094 911.003906 C 1029.226562 758.171875 1051.050781 566.476562 1160.445312 439.460938 L 1198.886719 394.84375 L 911.984375 305.59375 Z M 821.035156 699.632812 " clip-rule="nonzero"/></clipPath><linearGradient x1="0.186612" gradientTransform="matrix(0, 118.160276, 118.160436, 0, 1030.484664, 283.544517)" y1="0" x2="8.643144" gradientUnits="userSpaceOnUse" y2="0" id="7002050343"><stop stop-opacity="1" stop-color="rgb(21.014404%, 75.979614%, 58.56781%)" offset="0"/><stop stop-opacity="1" stop-color="rgb(20.433044%, 74.153137%, 59.977722%)" offset="0.00390625"/><stop stop-opacity="1" stop-color="rgb(19.851685%, 72.32666%, 61.38916%)" offset="0.0078125"/><stop stop-opacity="1" stop-color="rgb(19.270325%, 70.498657%, 62.799072%)" offset="0.0117187"/><stop stop-opacity="1" stop-color="rgb(18.688965%, 68.67218%, 64.208984%)" offset="0.015625"/><stop stop-opacity="1" stop-color="rgb(18.107605%, 66.845703%, 65.618896%)" offset="0.0195312"/><stop stop-opacity="1" stop-color="rgb(17.526245%, 65.019226%, 67.030334%)" offset="0.0234375"/><stop stop-opacity="1" stop-color="rgb(16.944885%, 63.192749%, 68.440247%)" offset="0.0273437"/><stop stop-opacity="1" stop-color="rgb(16.363525%, 61.366272%, 69.851685%)" offset="0.03125"/><stop stop-opacity="1" stop-color="rgb(15.782166%, 59.538269%, 71.261597%)" offset="0.0351563"/><stop stop-opacity="1" stop-color="rgb(15.200806%, 57.711792%, 72.673035%)" offset="0.0390625"/><stop stop-opacity="1" stop-color="rgb(14.619446%, 55.885315%, 74.082947%)" offset="0.0429688"/><stop stop-opacity="1" stop-color="rgb(14.038086%, 54.058838%, 75.494385%)" offset="0.046875"/><stop stop-opacity="1" stop-color="rgb(13.456726%, 52.232361%, 76.904297%)" offset="0.0507812"/><stop stop-opacity="1" stop-color="rgb(12.875366%, 50.405884%, 78.314209%)" offset="0.0546875"/><stop stop-opacity="1" stop-color="rgb(12.294006%, 48.577881%, 79.724121%)" offset="0.0585938"/><stop stop-opacity="1" stop-color="rgb(11.712646%, 46.751404%, 81.135559%)" offset="0.0625"/><stop stop-opacity="1" stop-color="rgb(11.131287%, 44.924927%, 82.545471%)" offset="0.0664063"/><stop stop-opacity="1" stop-color="rgb(10.549927%, 43.09845%, 83.956909%)" offset="0.0703125"/><stop stop-opacity="1" stop-color="rgb(9.968567%, 41.271973%, 85.366821%)" offset="0.0742188"/><stop stop-opacity="1" stop-color="rgb(9.387207%, 39.445496%, 86.778259%)" offset="0.078125"/><stop stop-opacity="1" stop-color="rgb(8.805847%, 37.617493%, 88.188171%)" offset="0.0820313"/><stop stop-opacity="1" stop-color="rgb(8.224487%, 35.791016%, 89.599609%)" offset="0.0859375"/><stop stop-opacity="1" stop-color="rgb(7.643127%, 33.964539%, 91.009521%)" offset="0.0898438"/><stop stop-opacity="1" stop-color="rgb(7.061768%, 32.138062%, 92.419434%)" offset="0.09375"/><stop stop-opacity="1" stop-color="rgb(6.880188%, 31.568909%, 92.858887%)" offset="0.0976562"/><stop stop-opacity="1" stop-color="rgb(6.698608%, 30.999756%, 93.299866%)" offset="0.101562"/><stop stop-opacity="1" stop-color="rgb(6.698608%, 30.999756%, 93.299866%)" offset="0.109375"/><stop stop-opacity="1" stop-color="rgb(6.698608%, 30.999756%, 93.299866%)" offset="0.125"/><stop stop-opacity="1" stop-color="rgb(6.698608%, 30.999756%, 93.299866%)" offset="0.25"/><stop stop-opacity="1" stop-color="rgb(6.698608%, 30.999756%, 93.299866%)" offset="0.5"/><stop stop-opacity="1" stop-color="rgb(6.698608%, 30.999756%, 93.299866%)" offset="1"/></linearGradient><clipPath id="9f8b64e0ea"><path d="M 1406 1296 L 1411 1296 L 1411 1305 L 1406 1305 Z M 1406 1296 " clip-rule="nonzero"/></clipPath><clipPath id="82159da915"><path d="M 1408.910156 1304.820312 L 1410.230469 1299.132812 L 1406.96875 1296.355469 Z M 1408.910156 1304.820312 " clip-rule="nonzero"/></clipPath><clipPath id="50bea81cf7"><path d="M 1408 1299 L 1413 1299 L 1413 1305 L 1408 1305 Z M 1408 1299 " clip-rule="nonzero"/></clipPath><clipPath id="8492f2f5b4"><path d="M 1408.910156 1304.820312 L 1412.304688 1300.886719 L 1410.230469 1299.132812 Z M 1408.910156 1304.820312 " clip-rule="nonzero"/></clipPath><clipPath id="b9aa007542"><path d="M 1408 1300 L 1415 1300 L 1415 1305 L 1408 1305 Z M 1408 1300 " clip-rule="nonzero"/></clipPath><clipPath id="8431e6f303"><path d="M 1408.910156 1304.820312 L 1414.78125 1302.992188 L 1412.304688 1300.886719 Z M 1408.910156 1304.820312 " clip-rule="nonzero"/></clipPath><clipPath id="b7b3a900ed"><path d="M 708.910156 380 L 1394 380 L 1394 1417 L 708.910156 1417 Z M 708.910156 380 " clip-rule="nonzero"/></clipPath><clipPath id="b11fa2c7f4"><path d="M 316.480469 1.03125 L 680.789062 1.03125 L 680.789062 901.441406 L 316.480469 901.441406 Z M 316.480469 1.03125 " clip-rule="nonzero"/></clipPath><clipPath id="c1524c269d"><rect x="0" width="686" y="0" height="1037"/></clipPath><clipPath id="32a4887fef"><path d="M 809.09375 305.59375 L 1408.917969 305.59375 L 1408.917969 1304.820312 L 809.09375 1304.820312 Z M 809.09375 305.59375 " clip-rule="nonzero"/></clipPath><mask id="334f12ab35"><g filter="url(#3e966b65a2)"><rect x="-283.5" width="3402" fill="#000000" y="-141.749996" height="1700.999955" fill-opacity="0.302"/></g></mask><clipPath id="b2104e5bee"><path d="M 0.09375 0.59375 L 599.917969 0.59375 L 599.917969 999.820312 L 0.09375 999.820312 Z M 0.09375 0.59375 " clip-rule="nonzero"/></clipPath><clipPath id="381dff43ce"><rect x="0" width="600" y="0" height="1000"/></clipPath><clipPath id="2a44763f73"><path d="M 1625.074219 305.585938 L 2008.742188 305.585938 L 2008.742188 1043.921875 L 1625.074219 1043.921875 Z M 1625.074219 305.585938 " clip-rule="nonzero"/></clipPath><mask id="1cbee746e3"><g filter="url(#3e966b65a2)"><rect x="-283.5" width="3402" fill="#000000" y="-141.749996" height="1700.999955" fill-opacity="0.4"/></g></mask><clipPath id="984ae1c6a9"><path d="M 0.0742188 0.585938 L 383.742188 0.585938 L 383.742188 738.921875 L 0.0742188 738.921875 Z M 0.0742188 0.585938 " clip-rule="nonzero"/></clipPath><clipPath id="114a8ca084"><rect x="0" width="384" y="0" height="739"/></clipPath><clipPath id="4460a414e2"><path d="M 809.113281 305.585938 L 1198.886719 305.585938 L 1198.886719 853.609375 L 809.113281 853.609375 Z M 809.113281 305.585938 " clip-rule="nonzero"/></clipPath><mask id="a4492c23e2"><g filter="url(#3e966b65a2)"><rect x="-283.5" width="3402" fill="#000000" y="-141.749996" height="1700.999955" fill-opacity="0.4"/></g></mask><clipPath id="98820c1c8a"><path d="M 0.113281 0.585938 L 389.886719 0.585938 L 389.886719 548.609375 L 0.113281 548.609375 Z M 0.113281 0.585938 " clip-rule="nonzero"/></clipPath><clipPath id="7ff90e0d04"><rect x="0" width="390" y="0" height="549"/></clipPath><clipPath id="1f92a1eb29"><path d="M 1208.566406 151.015625 L 1618.941406 151.015625 L 1618.941406 954.117188 L 1208.566406 954.117188 Z M 1208.566406 151.015625 " clip-rule="nonzero"/></clipPath><mask id="9d1b5ef614"><g filter="url(#3e966b65a2)"><rect x="-283.5" width="3402" fill="#000000" y="-141.749996" height="1700.999955" fill-opacity="0.4"/></g></mask><clipPath id="190586eec6"><path d="M 0.566406 0.015625 L 410.941406 0.015625 L 410.941406 803.117188 L 0.566406 803.117188 Z M 0.566406 0.015625 " clip-rule="nonzero"/></clipPath><clipPath id="d18f7a058f"><rect x="0" width="411" y="0" height="804"/></clipPath><clipPath id="45c5949f41"><path d="M 1306.03125 517.199219 L 1408.917969 517.199219 L 1408.917969 1304.820312 L 1306.03125 1304.820312 Z M 1306.03125 517.199219 " clip-rule="nonzero"/></clipPath><mask id="7a6f3cb091"><g filter="url(#3e966b65a2)"><rect x="-283.5" width="3402" fill="#000000" y="-141.749996" height="1700.999955" fill-opacity="0.251"/></g></mask><clipPath id="1f666fe311"><path d="M 0.03125 0.199219 L 102.917969 0.199219 L 102.917969 787.820312 L 0.03125 787.820312 Z M 0.03125 0.199219 " clip-rule="nonzero"/></clipPath><clipPath id="85c4befb9a"><rect x="0" width="103" y="0" height="788"/></clipPath><clipPath id="86b99cb8c8"><path d="M 1347.9375 534.410156 L 1486.726562 534.410156 L 1486.726562 1012.269531 L 1347.9375 1012.269531 Z M 1347.9375 534.410156 " clip-rule="nonzero"/></clipPath><mask id="e122856118"><g filter="url(#3e966b65a2)"><rect x="-283.5" width="3402" fill="#000000" y="-141.749996" height="1700.999955" fill-opacity="0.4"/></g></mask><clipPath id="00b2b854e5"><path d="M 0.9375 0.410156 L 139.726562 0.410156 L 139.726562 478.269531 L 0.9375 478.269531 Z M 0.9375 0.410156 " clip-rule="nonzero"/></clipPath><clipPath id="4566b5a7fa"><rect x="0" width="140" y="0" height="479"/></clipPath><clipPath id="35bae6e4c5"><path d="M 1408.917969 394.835938 L 1759.871094 394.835938 L 1759.871094 843.675781 L 1408.917969 843.675781 Z M 1408.917969 394.835938 " clip-rule="nonzero"/></clipPath><mask id="ca5af8752c"><g filter="url(#3e966b65a2)"><rect x="-283.5" width="3402" fill="#000000" y="-141.749996" height="1700.999955" fill-opacity="0.4"/></g></mask><clipPath id="5e1977643e"><path d="M 0.917969 0.835938 L 351.871094 0.835938 L 351.871094 449.675781 L 0.917969 449.675781 Z M 0.917969 0.835938 " clip-rule="nonzero"/></clipPath><clipPath id="6182fb38ec"><rect x="0" width="352" y="0" height="450"/></clipPath><clipPath id="f9016e0bf9"><path d="M 708.910156 386 L 1632 386 L 1632 1417 L 708.910156 1417 Z M 708.910156 386 " clip-rule="nonzero"/></clipPath><clipPath id="5e6db97dd7"><path d="M 700.917969 8.835938 L 919.332031 8.835938 L 919.332031 140.109375 L 700.917969 140.109375 Z M 700.917969 8.835938 " clip-rule="nonzero"/></clipPath><clipPath id="2e7e528346"><rect x="0" width="924" y="0" height="1031"/></clipPath></defs><g clip-path="url(#cc715e9ef1)"><g clip-path="url(#5db495cf05)"><path fill="url(#9d219b92a0)" d="M 1029.226562 151.015625 L 1618.933594 151.015625 L 1618.933594 1304.820312 L 1029.226562 1304.820312 Z M 1029.226562 151.015625 " fill-rule="nonzero"/></g></g><g clip-path="url(#14d333c63f)"><g clip-path="url(#3b52ce9fa7)"><path fill="url(#8b26778aba)" d="M 771.011719 305.605469 L 1408.910156 305.605469 L 1408.910156 1304.820312 L 771.011719 1304.820312 Z M 771.011719 305.605469 " fill-rule="nonzero"/></g></g><path fill="#dc8add" d="M 1408.734375 517.410156 C 1323.441406 617.296875 1284.515625 765.84375 1317.976562 910.773438 L 1408.910156 1304.820312 L 1499.859375 910.773438 C 1533.328125 765.734375 1494.339844 617.074219 1408.910156 517.199219 Z M 1408.734375 517.410156 " fill-opacity="1" fill-rule="nonzero"/><g clip-path="url(#4377009dd5)"><g clip-path="url(#a66a61c180)"><path fill="url(#1d950a3dba)" d="M 1788.609375 1304.820312 L 1408.910156 1304.820312 L 1408.910156 394.84375 L 1788.609375 394.84375 Z M 1788.609375 1304.820312 " fill-rule="nonzero"/></g></g><g clip-path="url(#b681a65874)"><g transform="matrix(1, 0, 0, 1, 708, 390)"><g clip-path="url(#887db2c9f2)"><g clip-path="url(#c843274e33)"><path fill="#000000" d="M 1014.832031 521.003906 C 1080.609375 368.191406 1058.792969 176.476562 949.382812 49.460938 L 910.933594 4.835938 L 863.433594 19.617188 C 925.265625 83.78125 1051.109375 240.917969 1000.824219 415.199219 C 935.128906 642.886719 738.929688 862.191406 700.933594 914.773438 L 949.382812 626.359375 C 976.628906 594.722656 998.445312 559.074219 1014.832031 521.003906 " fill-opacity="1" fill-rule="nonzero"/></g></g></g></g><path fill="#33d17a" d="M 1618.933594 394.84375 L 1657.375 439.46875 C 1766.792969 566.476562 1788.609375 758.191406 1722.832031 911.003906 C 1706.457031 949.074219 1684.636719 984.722656 1657.375 1016.359375 L 1408.910156 1304.820312 L 1748.140625 1199.300781 L 1748.339844 1199.226562 C 1935.003906 1141.15625 2046.824219 916.339844 1996.800781 699.625 L 1905.851562 305.605469 Z M 1618.933594 394.84375 " fill-opacity="1" fill-rule="nonzero"/><g clip-path="url(#12cbc10daf)"><g mask="url(#4bdaa9cc22)"><g transform="matrix(1, 0, 0, 1, 1412, 342)"><g clip-path="url(#72eb994300)"><g clip-path="url(#53c95ec8d5)"><path fill="#dcc6e0" d="M 419.972656 614.507812 C 547.109375 430.648438 373.769531 0.945312 373.769531 0.945312 L 225.011719 47.222656 L 206.933594 52.835938 L 230.453125 80.140625 L 245.382812 97.460938 C 354.792969 224.476562 376.601562 416.191406 310.824219 569.003906 C 294.457031 607.066406 272.628906 642.722656 245.382812 674.359375 L 0.296875 958.886719 L 0.472656 959.035156 L 1.722656 960.097656 C 33.519531 941.925781 216.046875 835.101562 345.375 703.242188 C 373.441406 674.625 398.996094 644.839844 419.972656 614.507812 " fill-opacity="1" fill-rule="nonzero"/></g></g></g></g></g><g clip-path="url(#0a5a2167d2)"><g mask="url(#d663ea525a)"><g transform="matrix(1, 0, 0, 1, 1408, 437)"><g clip-path="url(#c37ab07cf3)"><g clip-path="url(#52f8ac7a56)"><path fill="#ffbcd8" d="M 96.910156 0.679688 C 60.691406 20.972656 28.398438 48.054688 0.917969 80.199219 C 86.339844 180.074219 125.335938 328.742188 91.851562 473.773438 L 0.917969 867.8125 L 26.535156 838.050781 C 75.03125 717.925781 182.101562 434.585938 196.171875 285.160156 C 206.542969 175.097656 141.671875 63.355469 96.910156 0.679688 " fill-opacity="1" fill-rule="nonzero"/></g></g></g></g></g><g clip-path="url(#e04499d740)"><g transform="matrix(1, 0, 0, 1, 708, 380)"><g clip-path="url(#37e3422b98)"><g clip-path="url(#266185a289)"><path fill="#dcc6e0" d="M 949.390625 59.46875 C 1058.789062 186.484375 1080.609375 378.191406 1014.839844 531.015625 C 998.453125 569.074219 976.636719 604.734375 949.382812 636.367188 L 700.917969 924.820312 L 960.546875 649.339844 C 985.378906 620.503906 1006.496094 587.761719 1023.230469 551.992188 C 1025.210938 547.773438 1027.121094 543.515625 1028.972656 539.214844 C 1099.355469 375.679688 1072.28125 176.21875 960.546875 46.507812 L 929.019531 9.222656 L 910.941406 14.84375 Z M 949.390625 59.46875 " fill-opacity="1" fill-rule="nonzero"/></g></g></g></g><g clip-path="url(#c7df443658)"><g transform="matrix(1, 0, 0, 1, 708, 496)"><g clip-path="url(#d4eb6adf7f)"><g clip-path="url(#7db803d6a0)"><path fill="#ffbcd8" d="M 770.273438 101.722656 C 754.320312 67.355469 734.792969 35.75 712.242188 8.527344 C 708.386719 12.65625 704.609375 16.886719 700.910156 21.207031 C 786.339844 121.085938 825.335938 269.753906 791.859375 414.78125 L 700.910156 808.820312 L 807.710938 419.714844 C 831.605469 316.234375 815.027344 198.148438 770.273438 101.722656 " fill-opacity="1" fill-rule="nonzero"/></g></g></g></g><g clip-path="url(#6e79ed454d)"><g transform="matrix(1, 0, 0, 1, 708, 510)"><g clip-path="url(#2d2816baab)"><g clip-path="url(#d5998ba8a0)"><path fill="#870000" d="M 697.019531 777.933594 L 700.917969 794.820312 C 764.855469 542.285156 896.125 229.167969 700.917969 7.207031 C 700.855469 7.28125 700.796875 7.335938 700.734375 7.410156 C 693.503906 15.886719 693.042969 14.816406 686.480469 23.957031 C 864.675781 174.175781 736.925781 651.378906 697.019531 777.933594 " fill-opacity="1" fill-rule="nonzero"/></g></g></g></g><g clip-path="url(#91fddb0004)"><g transform="matrix(1, 0, 0, 1, 708, 384)"><g clip-path="url(#8b3a17d86d)"><g clip-path="url(#6963f15551)"><path fill="#ecf955" d="M 609.96875 526.773438 C 578.359375 389.859375 611.359375 249.695312 687.023438 150.410156 C 686.847656 150.25 686.664062 150.105469 686.480469 149.945312 C 692.636719 141.359375 693.417969 141.792969 699.496094 134.851562 L 700.734375 133.402344 L 700.917969 133.1875 C 704.609375 128.875 708.386719 124.65625 712.242188 120.519531 C 752.5625 77.410156 802.089844 44.695312 858.429688 27.167969 L 863.433594 25.617188 L 910.941406 10.835938 L 908.707031 8.230469 L 854.304688 9.246094 C 791.75 28.710938 735.375 66.949219 689.609375 120.066406 L 689.433594 120.28125 C 663.632812 150.234375 642.179688 184.210938 625.429688 220.832031 C 582.378906 314.875 570.230469 426.304688 594.53125 531.574219 L 700.917969 920.792969 L 697.019531 903.914062 Z M 609.96875 526.773438 " fill-opacity="1" fill-rule="nonzero"/></g></g></g></g><g clip-path="url(#bd618c2cef)"><g mask="url(#9fa4f7f029)"><g transform="matrix(1, 0, 0, 1, 1057, 151)"><g clip-path="url(#13d8a70ce3)"><g clip-path="url(#85ea46fb7b)"><path fill="#ecf955" d="M 349.96875 1145.371094 L 349.96875 1145.363281 Z M 457.121094 122.15625 L 351.917969 0.015625 L 141.886719 243.84375 L 103.445312 288.46875 C -5.957031 415.476562 -27.773438 607.179688 37.996094 760.003906 C 54.371094 798.074219 76.199219 833.722656 103.445312 865.359375 L 351.917969 1153.820312 L 349.96875 1145.363281 C 349.921875 1145.289062 31.917969 717.457031 114.445312 474.0625 C 114.445312 474.0625 213.804688 239.117188 457.121094 122.15625 " fill-opacity="1" fill-rule="nonzero"/></g></g></g></g></g><g clip-path="url(#1b1e17f487)"><g clip-path="url(#dac20f2639)"><path fill="url(#7002050343)" d="M 771.011719 305.59375 L 1408.910156 305.59375 L 1408.910156 1304.820312 L 771.011719 1304.820312 Z M 771.011719 305.59375 " fill-rule="nonzero"/></g></g><g clip-path="url(#9f8b64e0ea)"><g clip-path="url(#82159da915)"><path fill="#ff2966" d="M 1410.230469 1304.820312 L 1406.96875 1304.820312 L 1406.96875 1296.355469 L 1410.230469 1296.355469 Z M 1410.230469 1304.820312 " fill-opacity="1" fill-rule="nonzero"/></g></g><g clip-path="url(#50bea81cf7)"><g clip-path="url(#8492f2f5b4)"><path fill="#5e17a9" d="M 1412.304688 1304.820312 L 1408.910156 1304.820312 L 1408.910156 1299.132812 L 1412.304688 1299.132812 Z M 1412.304688 1304.820312 " fill-opacity="1" fill-rule="nonzero"/></g></g><path fill="#000000" d="M 1412.011719 1300.636719 C 1410.90625 1302.105469 1409.855469 1303.519531 1408.933594 1304.785156 L 1412.304688 1300.886719 Z M 1412.011719 1300.636719 " fill-opacity="1" fill-rule="nonzero"/><g clip-path="url(#b9aa007542)"><g clip-path="url(#8431e6f303)"><path fill="#0049e7" d="M 1414.78125 1304.820312 L 1408.910156 1304.820312 L 1408.910156 1300.886719 L 1414.78125 1300.886719 Z M 1414.78125 1304.820312 " fill-opacity="1" fill-rule="nonzero"/></g></g><path fill="#99c1f1" d="M 1412.304688 1300.886719 L 1408.917969 1304.820312 L 1412.480469 1301.035156 Z M 1412.304688 1300.886719 " fill-opacity="1" fill-rule="nonzero"/><path fill="#99c1f1" d="M 1410.230469 1299.125 L 1408.917969 1304.8125 L 1410.4375 1299.300781 Z M 1410.230469 1299.125 " fill-opacity="1" fill-rule="nonzero"/><path fill="#99c1f1" d="M 1406.960938 1296.363281 L 1408.910156 1304.820312 L 1410.316406 1299.214844 L 1406.960938 1296.382812 Z M 1406.960938 1296.363281 " fill-opacity="1" fill-rule="nonzero"/><path fill="#99c1f1" d="M 1406.398438 1295.597656 L 1408.910156 1304.820312 L 1406.96875 1296.382812 Z M 1406.398438 1295.597656 " fill-opacity="1" fill-rule="nonzero"/><g clip-path="url(#b7b3a900ed)"><g transform="matrix(1, 0, 0, 1, 708, 380)"><g clip-path="url(#c1524c269d)"><g clip-path="url(#b11fa2c7f4)"><path fill="#dc8add" d="M 446.503906 1.03125 C 446.503906 1.03125 209.144531 225.792969 375.828125 559.691406 C 391.269531 590.625 410.164062 622.480469 433.046875 655.183594 L 680.796875 901.441406 L 452.453125 636.359375 C 425.199219 604.714844 403.382812 569.066406 386.996094 530.996094 C 321.226562 378.179688 343.042969 186.46875 452.453125 59.460938 L 490.886719 14.835938 Z M 446.503906 1.03125 " fill-opacity="1" fill-rule="nonzero"/></g></g></g></g><g clip-path="url(#32a4887fef)"><g mask="url(#334f12ab35)"><g transform="matrix(1, 0, 0, 1, 809, 305)"><g clip-path="url(#381dff43ce)"><g clip-path="url(#b2104e5bee)"><path fill="#dc8add" d="M 249.402344 768.476562 C -6.402344 525.488281 196.289062 29.617188 196.289062 29.617188 L 102.992188 0.59375 L 12.042969 394.632812 C -37.976562 611.339844 73.824219 836.167969 260.503906 894.226562 L 260.695312 894.292969 L 599.925781 999.820312 L 599.855469 999.726562 Z M 249.402344 768.476562 " fill-opacity="1" fill-rule="nonzero"/></g></g></g></g></g><g clip-path="url(#2a44763f73)"><g mask="url(#1cbee746e3)"><g transform="matrix(1, 0, 0, 1, 1625, 305)"><g clip-path="url(#114a8ca084)"><g clip-path="url(#984ae1c6a9)"><path fill="#99c1f1" d="M 316.8125 738.921875 C 376.527344 642.734375 400.140625 517.382812 371.800781 394.632812 L 280.851562 0.59375 L 9.664062 84.953125 C 6.355469 89.050781 3.152344 93.058594 0.0820312 96.964844 L 32.390625 134.46875 C 72.953125 181.5625 101.472656 237.5625 117.953125 297.171875 C 216.386719 393.292969 320.460938 541.941406 316.8125 738.921875 " fill-opacity="1" fill-rule="nonzero"/></g></g></g></g></g><g clip-path="url(#4460a414e2)"><g mask="url(#a4492c23e2)"><g transform="matrix(1, 0, 0, 1, 809, 305)"><g clip-path="url(#7ff90e0d04)"><g clip-path="url(#98820c1c8a)"><path fill="#dc8add" d="M 293.097656 224.21875 C 308.511719 192.003906 327.960938 161.738281 351.445312 134.460938 L 389.886719 89.835938 L 102.984375 0.585938 L 12.035156 394.632812 C 0.113281 446.285156 -2.601562 498.386719 2.6875 548.601562 C 60.113281 370.910156 193.980469 273.773438 293.097656 224.21875 " fill-opacity="1" fill-rule="nonzero"/></g></g></g></g></g><g clip-path="url(#1f92a1eb29)"><g mask="url(#9d1b5ef614)"><g transform="matrix(1, 0, 0, 1, 1208, 151)"><g clip-path="url(#d18f7a058f)"><g clip-path="url(#190586eec6)"><path fill="#99c1f1" d="M 200.917969 366.199219 C 243.136719 316.828125 296.6875 279.375 358.4375 260.171875 L 410.941406 243.835938 L 200.917969 0.0078125 L 14.398438 216.542969 C -13.417969 407.90625 -8.9375 639.96875 119.980469 803.105469 L 109.976562 759.773438 C 76.523438 614.84375 115.449219 466.289062 200.734375 366.402344 Z M 200.917969 366.199219 " fill-opacity="1" fill-rule="nonzero"/></g></g></g></g></g><g clip-path="url(#45c5949f41)"><g mask="url(#7a6f3cb091)"><g transform="matrix(1, 0, 0, 1, 1306, 517)"><g clip-path="url(#85c4befb9a)"><g clip-path="url(#1f666fe311)"><path fill="#99c1f1" d="M 102.734375 0.410156 C 17.441406 100.289062 -21.484375 248.84375 11.976562 393.78125 L 102.910156 787.820312 L 102.910156 0.207031 Z M 102.734375 0.410156 " fill-opacity="1" fill-rule="nonzero"/></g></g></g></g></g><g clip-path="url(#86b99cb8c8)"><g mask="url(#e122856118)"><g transform="matrix(1, 0, 0, 1, 1347, 534)"><g clip-path="url(#4566b5a7fa)"><g clip-path="url(#00b2b854e5)"><path fill="#99c1f1" d="M 0.9375 78.957031 C 0.9375 78.957031 127.066406 232.742188 122.683594 478.265625 C 151.109375 299.109375 154.609375 90.96875 48.023438 0.410156 C 29.730469 24.414062 13.933594 50.804688 0.9375 78.957031 " fill-opacity="1" fill-rule="nonzero"/></g></g></g></g></g><g clip-path="url(#35bae6e4c5)"><g mask="url(#ca5af8752c)"><g transform="matrix(1, 0, 0, 1, 1408, 394)"><g clip-path="url(#6182fb38ec)"><g clip-path="url(#5e1977643e)"><path fill="#99c1f1" d="M 60.96875 217 C 140.632812 241.820312 269.035156 303.175781 337.585938 449.675781 C 372.621094 310.914062 343.210938 154.386719 249.375 45.460938 L 210.933594 0.835938 L 158.429688 17.171875 C 96.679688 36.375 43.136719 73.828125 0.910156 123.199219 C 24.730469 151.046875 44.933594 182.707031 60.96875 217 " fill-opacity="1" fill-rule="nonzero"/></g></g></g></g></g><g clip-path="url(#f9016e0bf9)"><g transform="matrix(1, 0, 0, 1, 708, 386)"><g clip-path="url(#2e7e528346)"><g clip-path="url(#5e6db97dd7)"><path fill="#99c1f1" d="M 919.332031 18.585938 L 910.933594 8.835938 L 858.429688 25.179688 C 796.679688 44.382812 743.136719 81.835938 700.910156 131.199219 C 703.421875 134.132812 705.882812 137.097656 708.308594 140.109375 C 750.324219 91.464844 803.425781 54.550781 864.5625 35.53125 L 917.074219 19.195312 Z M 919.332031 18.585938 " fill-opacity="1" fill-rule="nonzero"/></g></g></g></g></svg>