<svg xmlns="http://www.w3.org/2000/svg" xmlns:xlink="http://www.w3.org/1999/xlink" width="500" zoomAndPan="magnify" viewBox="0 0 375 374.999991" height="500" preserveAspectRatio="xMidYMid meet" version="1.0"><defs><g/><clipPath id="b6f1ec66f5"><path d="M 64.3125 74.769531 L 337.472656 74.769531 L 337.472656 244.257812 L 64.3125 244.257812 Z M 64.3125 74.769531 " clip-rule="nonzero"/></clipPath></defs><rect x="-37.5" width="450" fill="#ffffff" y="-37.499999" height="449.999989" fill-opacity="1"/><rect x="-37.5" width="450" fill="#ffffff" y="-37.499999" height="449.999989" fill-opacity="1"/><g fill="#ffffff" fill-opacity="1"><g transform="translate(50.439376, 267.366868)"><g><path d="M 1.953125 0 L 1.953125 -14.984375 L 8.34375 -14.984375 C 9.269531 -14.984375 10.050781 -14.835938 10.6875 -14.546875 C 11.332031 -14.265625 11.816406 -13.851562 12.140625 -13.3125 C 12.472656 -12.78125 12.640625 -12.144531 12.640625 -11.40625 C 12.640625 -10.75 12.476562 -10.164062 12.15625 -9.65625 C 11.832031 -9.15625 11.367188 -8.75 10.765625 -8.4375 L 10.765625 -8.21875 C 11.710938 -7.976562 12.441406 -7.53125 12.953125 -6.875 C 13.460938 -6.226562 13.71875 -5.429688 13.71875 -4.484375 C 13.71875 -3.054688 13.285156 -1.953125 12.421875 -1.171875 C 11.554688 -0.390625 10.273438 0 8.578125 0 Z M 7.734375 -9.015625 C 9.109375 -9.015625 9.796875 -9.632812 9.796875 -10.875 C 9.796875 -11.507812 9.625 -11.984375 9.28125 -12.296875 C 8.945312 -12.609375 8.429688 -12.765625 7.734375 -12.765625 L 4.90625 -12.765625 L 4.90625 -9.015625 Z M 8.28125 -2.34375 C 9.90625 -2.34375 10.71875 -3.085938 10.71875 -4.578125 C 10.71875 -6.066406 9.90625 -6.8125 8.28125 -6.8125 L 4.90625 -6.8125 L 4.90625 -2.34375 Z M 8.28125 -2.34375 "/></g></g></g><g fill="#ffffff" fill-opacity="1"><g transform="translate(64.26246, 267.366868)"><g><path d="M 11.171875 -5.015625 L 3.90625 -5.015625 C 3.988281 -4.023438 4.269531 -3.304688 4.75 -2.859375 C 5.226562 -2.410156 5.878906 -2.1875 6.703125 -2.1875 C 7.359375 -2.1875 7.882812 -2.304688 8.28125 -2.546875 C 8.6875 -2.796875 9.015625 -3.164062 9.265625 -3.65625 L 9.46875 -3.65625 L 11.359375 -2.453125 C 10.992188 -1.660156 10.4375 -1.015625 9.6875 -0.515625 C 8.945312 -0.0234375 7.953125 0.21875 6.703125 0.21875 C 5.535156 0.21875 4.523438 -0.00390625 3.671875 -0.453125 C 2.828125 -0.898438 2.171875 -1.5625 1.703125 -2.4375 C 1.242188 -3.3125 1.015625 -4.382812 1.015625 -5.65625 C 1.015625 -6.9375 1.253906 -8.015625 1.734375 -8.890625 C 2.222656 -9.773438 2.878906 -10.4375 3.703125 -10.875 C 4.535156 -11.3125 5.46875 -11.53125 6.5 -11.53125 C 8.101562 -11.53125 9.328125 -11.101562 10.171875 -10.25 C 11.023438 -9.40625 11.453125 -8.160156 11.453125 -6.515625 C 11.453125 -5.921875 11.429688 -5.460938 11.390625 -5.140625 Z M 8.734375 -6.84375 C 8.710938 -7.707031 8.515625 -8.335938 8.140625 -8.734375 C 7.765625 -9.128906 7.21875 -9.328125 6.5 -9.328125 C 5.0625 -9.328125 4.21875 -8.5 3.96875 -6.84375 Z M 8.734375 -6.84375 "/></g></g></g><g fill="#ffffff" fill-opacity="1"><g transform="translate(75.716893, 267.366868)"><g><path d="M 2.5 4.796875 C 2.019531 4.796875 1.582031 4.757812 1.1875 4.6875 C 0.789062 4.613281 0.46875 4.515625 0.21875 4.390625 L 0.671875 2.09375 L 0.859375 2.03125 C 1.035156 2.113281 1.25 2.179688 1.5 2.234375 C 1.75 2.296875 2.007812 2.328125 2.28125 2.328125 C 2.738281 2.328125 3.117188 2.265625 3.421875 2.140625 C 3.722656 2.023438 3.976562 1.828125 4.1875 1.546875 C 4.40625 1.273438 4.597656 0.894531 4.765625 0.40625 L 0.25 -11.3125 L 3.21875 -11.3125 L 6.03125 -3.453125 L 6.28125 -3.453125 L 9.015625 -11.3125 L 11.90625 -11.3125 L 7.359375 0.703125 C 6.992188 1.671875 6.59375 2.453125 6.15625 3.046875 C 5.726562 3.640625 5.21875 4.078125 4.625 4.359375 C 4.039062 4.648438 3.332031 4.796875 2.5 4.796875 Z M 2.5 4.796875 "/></g></g></g><g fill="#ffffff" fill-opacity="1"><g transform="translate(87.017518, 267.366868)"><g><path d="M 6.578125 0.21875 C 5.460938 0.21875 4.488281 -0.0078125 3.65625 -0.46875 C 2.820312 -0.925781 2.171875 -1.59375 1.703125 -2.46875 C 1.242188 -3.34375 1.015625 -4.40625 1.015625 -5.65625 C 1.015625 -6.894531 1.242188 -7.953125 1.703125 -8.828125 C 2.171875 -9.710938 2.820312 -10.382812 3.65625 -10.84375 C 4.488281 -11.300781 5.460938 -11.53125 6.578125 -11.53125 C 7.679688 -11.53125 8.648438 -11.300781 9.484375 -10.84375 C 10.328125 -10.382812 10.976562 -9.710938 11.4375 -8.828125 C 11.90625 -7.953125 12.140625 -6.894531 12.140625 -5.65625 C 12.140625 -4.40625 11.90625 -3.34375 11.4375 -2.46875 C 10.976562 -1.59375 10.328125 -0.925781 9.484375 -0.46875 C 8.648438 -0.0078125 7.679688 0.21875 6.578125 0.21875 Z M 6.578125 -2.1875 C 8.328125 -2.1875 9.203125 -3.34375 9.203125 -5.65625 C 9.203125 -6.84375 8.976562 -7.710938 8.53125 -8.265625 C 8.082031 -8.828125 7.429688 -9.109375 6.578125 -9.109375 C 4.816406 -9.109375 3.9375 -7.957031 3.9375 -5.65625 C 3.9375 -3.34375 4.816406 -2.1875 6.578125 -2.1875 Z M 6.578125 -2.1875 "/></g></g></g><g fill="#ffffff" fill-opacity="1"><g transform="translate(99.323023, 267.366868)"><g><path d="M 1.625 0 L 1.625 -11.3125 L 4.359375 -11.3125 L 4.359375 -9.65625 L 4.578125 -9.59375 C 5.273438 -10.882812 6.414062 -11.53125 8 -11.53125 C 9.300781 -11.53125 10.257812 -11.171875 10.875 -10.453125 C 11.488281 -9.742188 11.796875 -8.710938 11.796875 -7.359375 L 11.796875 0 L 8.953125 0 L 8.953125 -7 C 8.953125 -7.75 8.800781 -8.289062 8.5 -8.625 C 8.195312 -8.957031 7.71875 -9.125 7.0625 -9.125 C 6.238281 -9.125 5.597656 -8.859375 5.140625 -8.328125 C 4.691406 -7.804688 4.46875 -6.984375 4.46875 -5.859375 L 4.46875 0 Z M 1.625 0 "/></g></g></g><g fill="#ffffff" fill-opacity="1"><g transform="translate(111.731067, 267.366868)"><g><path d="M 5.59375 0.21875 C 4.695312 0.21875 3.90625 0 3.21875 -0.4375 C 2.53125 -0.875 1.988281 -1.53125 1.59375 -2.40625 C 1.207031 -3.28125 1.015625 -4.363281 1.015625 -5.65625 C 1.015625 -6.945312 1.210938 -8.03125 1.609375 -8.90625 C 2.015625 -9.78125 2.570312 -10.4375 3.28125 -10.875 C 3.988281 -11.3125 4.804688 -11.53125 5.734375 -11.53125 C 6.429688 -11.53125 7.039062 -11.40625 7.5625 -11.15625 C 8.082031 -10.914062 8.519531 -10.539062 8.875 -10.03125 L 9.078125 -10.078125 L 9.078125 -15.859375 L 11.921875 -15.859375 L 11.921875 0 L 9.078125 0 L 9.078125 -1.46875 L 8.875 -1.5 C 8.550781 -0.96875 8.113281 -0.546875 7.5625 -0.234375 C 7.019531 0.0664062 6.363281 0.21875 5.59375 0.21875 Z M 6.515625 -2.1875 C 7.316406 -2.1875 7.945312 -2.472656 8.40625 -3.046875 C 8.875 -3.617188 9.109375 -4.488281 9.109375 -5.65625 C 9.109375 -6.8125 8.875 -7.675781 8.40625 -8.25 C 7.945312 -8.820312 7.316406 -9.109375 6.515625 -9.109375 C 5.679688 -9.109375 5.039062 -8.828125 4.59375 -8.265625 C 4.15625 -7.710938 3.9375 -6.84375 3.9375 -5.65625 C 3.9375 -4.457031 4.15625 -3.578125 4.59375 -3.015625 C 5.039062 -2.460938 5.679688 -2.1875 6.515625 -2.1875 Z M 6.515625 -2.1875 "/></g></g></g><g fill="#ffffff" fill-opacity="1"><g transform="translate(124.446728, 267.366868)"><g/></g></g><g fill="#ffffff" fill-opacity="1"><g transform="translate(128.559362, 267.366868)"><g><path d="M 1.953125 0 L 1.953125 -14.984375 L 8.34375 -14.984375 C 9.269531 -14.984375 10.050781 -14.835938 10.6875 -14.546875 C 11.332031 -14.265625 11.816406 -13.851562 12.140625 -13.3125 C 12.472656 -12.78125 12.640625 -12.144531 12.640625 -11.40625 C 12.640625 -10.75 12.476562 -10.164062 12.15625 -9.65625 C 11.832031 -9.15625 11.367188 -8.75 10.765625 -8.4375 L 10.765625 -8.21875 C 11.710938 -7.976562 12.441406 -7.53125 12.953125 -6.875 C 13.460938 -6.226562 13.71875 -5.429688 13.71875 -4.484375 C 13.71875 -3.054688 13.285156 -1.953125 12.421875 -1.171875 C 11.554688 -0.390625 10.273438 0 8.578125 0 Z M 7.734375 -9.015625 C 9.109375 -9.015625 9.796875 -9.632812 9.796875 -10.875 C 9.796875 -11.507812 9.625 -11.984375 9.28125 -12.296875 C 8.945312 -12.609375 8.429688 -12.765625 7.734375 -12.765625 L 4.90625 -12.765625 L 4.90625 -9.015625 Z M 8.28125 -2.34375 C 9.90625 -2.34375 10.71875 -3.085938 10.71875 -4.578125 C 10.71875 -6.066406 9.90625 -6.8125 8.28125 -6.8125 L 4.90625 -6.8125 L 4.90625 -2.34375 Z M 8.28125 -2.34375 "/></g></g></g><g fill="#ffffff" fill-opacity="1"><g transform="translate(142.382445, 267.366868)"><g><path d="M 6.578125 0.21875 C 5.460938 0.21875 4.488281 -0.0078125 3.65625 -0.46875 C 2.820312 -0.925781 2.171875 -1.59375 1.703125 -2.46875 C 1.242188 -3.34375 1.015625 -4.40625 1.015625 -5.65625 C 1.015625 -6.894531 1.242188 -7.953125 1.703125 -8.828125 C 2.171875 -9.710938 2.820312 -10.382812 3.65625 -10.84375 C 4.488281 -11.300781 5.460938 -11.53125 6.578125 -11.53125 C 7.679688 -11.53125 8.648438 -11.300781 9.484375 -10.84375 C 10.328125 -10.382812 10.976562 -9.710938 11.4375 -8.828125 C 11.90625 -7.953125 12.140625 -6.894531 12.140625 -5.65625 C 12.140625 -4.40625 11.90625 -3.34375 11.4375 -2.46875 C 10.976562 -1.59375 10.328125 -0.925781 9.484375 -0.46875 C 8.648438 -0.0078125 7.679688 0.21875 6.578125 0.21875 Z M 6.578125 -2.1875 C 8.328125 -2.1875 9.203125 -3.34375 9.203125 -5.65625 C 9.203125 -6.84375 8.976562 -7.710938 8.53125 -8.265625 C 8.082031 -8.828125 7.429688 -9.109375 6.578125 -9.109375 C 4.816406 -9.109375 3.9375 -7.957031 3.9375 -5.65625 C 3.9375 -3.34375 4.816406 -2.1875 6.578125 -2.1875 Z M 6.578125 -2.1875 "/></g></g></g><g fill="#ffffff" fill-opacity="1"><g transform="translate(154.68795, 267.366868)"><g><path d="M 5.59375 0.21875 C 4.695312 0.21875 3.90625 0 3.21875 -0.4375 C 2.53125 -0.875 1.988281 -1.53125 1.59375 -2.40625 C 1.207031 -3.28125 1.015625 -4.363281 1.015625 -5.65625 C 1.015625 -6.945312 1.210938 -8.03125 1.609375 -8.90625 C 2.015625 -9.78125 2.570312 -10.4375 3.28125 -10.875 C 3.988281 -11.3125 4.804688 -11.53125 5.734375 -11.53125 C 6.429688 -11.53125 7.039062 -11.40625 7.5625 -11.15625 C 8.082031 -10.914062 8.519531 -10.539062 8.875 -10.03125 L 9.078125 -10.078125 L 9.078125 -15.859375 L 11.921875 -15.859375 L 11.921875 0 L 9.078125 0 L 9.078125 -1.46875 L 8.875 -1.5 C 8.550781 -0.96875 8.113281 -0.546875 7.5625 -0.234375 C 7.019531 0.0664062 6.363281 0.21875 5.59375 0.21875 Z M 6.515625 -2.1875 C 7.316406 -2.1875 7.945312 -2.472656 8.40625 -3.046875 C 8.875 -3.617188 9.109375 -4.488281 9.109375 -5.65625 C 9.109375 -6.8125 8.875 -7.675781 8.40625 -8.25 C 7.945312 -8.820312 7.316406 -9.109375 6.515625 -9.109375 C 5.679688 -9.109375 5.039062 -8.828125 4.59375 -8.265625 C 4.15625 -7.710938 3.9375 -6.84375 3.9375 -5.65625 C 3.9375 -4.457031 4.15625 -3.578125 4.59375 -3.015625 C 5.039062 -2.460938 5.679688 -2.1875 6.515625 -2.1875 Z M 6.515625 -2.1875 "/></g></g></g><g fill="#ffffff" fill-opacity="1"><g transform="translate(167.403618, 267.366868)"><g><path d="M 2.5 4.796875 C 2.019531 4.796875 1.582031 4.757812 1.1875 4.6875 C 0.789062 4.613281 0.46875 4.515625 0.21875 4.390625 L 0.671875 2.09375 L 0.859375 2.03125 C 1.035156 2.113281 1.25 2.179688 1.5 2.234375 C 1.75 2.296875 2.007812 2.328125 2.28125 2.328125 C 2.738281 2.328125 3.117188 2.265625 3.421875 2.140625 C 3.722656 2.023438 3.976562 1.828125 4.1875 1.546875 C 4.40625 1.273438 4.597656 0.894531 4.765625 0.40625 L 0.25 -11.3125 L 3.21875 -11.3125 L 6.03125 -3.453125 L 6.28125 -3.453125 L 9.015625 -11.3125 L 11.90625 -11.3125 L 7.359375 0.703125 C 6.992188 1.671875 6.59375 2.453125 6.15625 3.046875 C 5.726562 3.640625 5.21875 4.078125 4.625 4.359375 C 4.039062 4.648438 3.332031 4.796875 2.5 4.796875 Z M 2.5 4.796875 "/></g></g></g><g fill="#ffffff" fill-opacity="1"><g transform="translate(178.704246, 267.366868)"><g/></g></g><g fill="#ffffff" fill-opacity="1"><g transform="translate(182.816886, 267.366868)"><g><path d="M 11.625 -9.359375 L 11.625 -14.984375 L 14.578125 -14.984375 L 14.578125 0 L 11.625 0 L 11.625 -6.828125 L 4.90625 -6.828125 L 4.90625 0 L 1.953125 0 L 1.953125 -14.984375 L 4.90625 -14.984375 L 4.90625 -9.359375 Z M 11.625 -9.359375 "/></g></g></g><g fill="#ffffff" fill-opacity="1"><g transform="translate(198.516439, 267.366868)"><g><path d="M 6.578125 0.21875 C 5.460938 0.21875 4.488281 -0.0078125 3.65625 -0.46875 C 2.820312 -0.925781 2.171875 -1.59375 1.703125 -2.46875 C 1.242188 -3.34375 1.015625 -4.40625 1.015625 -5.65625 C 1.015625 -6.894531 1.242188 -7.953125 1.703125 -8.828125 C 2.171875 -9.710938 2.820312 -10.382812 3.65625 -10.84375 C 4.488281 -11.300781 5.460938 -11.53125 6.578125 -11.53125 C 7.679688 -11.53125 8.648438 -11.300781 9.484375 -10.84375 C 10.328125 -10.382812 10.976562 -9.710938 11.4375 -8.828125 C 11.90625 -7.953125 12.140625 -6.894531 12.140625 -5.65625 C 12.140625 -4.40625 11.90625 -3.34375 11.4375 -2.46875 C 10.976562 -1.59375 10.328125 -0.925781 9.484375 -0.46875 C 8.648438 -0.0078125 7.679688 0.21875 6.578125 0.21875 Z M 6.578125 -2.1875 C 8.328125 -2.1875 9.203125 -3.34375 9.203125 -5.65625 C 9.203125 -6.84375 8.976562 -7.710938 8.53125 -8.265625 C 8.082031 -8.828125 7.429688 -9.109375 6.578125 -9.109375 C 4.816406 -9.109375 3.9375 -7.957031 3.9375 -5.65625 C 3.9375 -3.34375 4.816406 -2.1875 6.578125 -2.1875 Z M 6.578125 -2.1875 "/></g></g></g><g fill="#ffffff" fill-opacity="1"><g transform="translate(210.821949, 267.366868)"><g><path d="M 4.703125 0.21875 C 3.679688 0.21875 2.898438 -0.0546875 2.359375 -0.609375 C 1.828125 -1.160156 1.5625 -2 1.5625 -3.125 L 1.5625 -15.859375 L 4.40625 -15.859375 L 4.40625 -3.234375 C 4.40625 -2.535156 4.691406 -2.1875 5.265625 -2.1875 C 5.421875 -2.1875 5.59375 -2.21875 5.78125 -2.28125 L 5.921875 -2.234375 L 6.1875 -0.046875 C 6.03125 0.0351562 5.820312 0.0976562 5.5625 0.140625 C 5.300781 0.191406 5.015625 0.21875 4.703125 0.21875 Z M 4.703125 0.21875 "/></g></g></g><g fill="#ffffff" fill-opacity="1"><g transform="translate(216.482929, 267.366868)"><g><path d="M 3.046875 -12.65625 C 2.535156 -12.65625 2.117188 -12.8125 1.796875 -13.125 C 1.472656 -13.4375 1.3125 -13.835938 1.3125 -14.328125 C 1.3125 -14.816406 1.472656 -15.21875 1.796875 -15.53125 C 2.117188 -15.84375 2.535156 -16 3.046875 -16 C 3.390625 -16 3.691406 -15.925781 3.953125 -15.78125 C 4.222656 -15.632812 4.429688 -15.4375 4.578125 -15.1875 C 4.722656 -14.9375 4.796875 -14.648438 4.796875 -14.328125 C 4.796875 -14.015625 4.722656 -13.726562 4.578125 -13.46875 C 4.429688 -13.21875 4.222656 -13.019531 3.953125 -12.875 C 3.691406 -12.726562 3.390625 -12.65625 3.046875 -12.65625 Z M 1.625 0 L 1.625 -11.3125 L 4.46875 -11.3125 L 4.46875 0 Z M 1.625 0 "/></g></g></g><g fill="#ffffff" fill-opacity="1"><g transform="translate(221.733753, 267.366868)"><g><path d="M 5.296875 0.21875 C 4.515625 0.21875 3.800781 0.128906 3.15625 -0.046875 C 2.519531 -0.234375 1.972656 -0.484375 1.515625 -0.796875 C 1.066406 -1.117188 0.734375 -1.484375 0.515625 -1.890625 L 2.09375 -3.59375 L 2.3125 -3.59375 C 2.6875 -3.09375 3.128906 -2.710938 3.640625 -2.453125 C 4.148438 -2.203125 4.707031 -2.078125 5.3125 -2.078125 C 5.863281 -2.078125 6.28125 -2.175781 6.5625 -2.375 C 6.84375 -2.570312 6.984375 -2.859375 6.984375 -3.234375 C 6.984375 -3.515625 6.878906 -3.753906 6.671875 -3.953125 C 6.472656 -4.148438 6.148438 -4.300781 5.703125 -4.40625 L 4.203125 -4.765625 C 3.078125 -5.035156 2.253906 -5.441406 1.734375 -5.984375 C 1.222656 -6.535156 0.96875 -7.238281 0.96875 -8.09375 C 0.96875 -8.789062 1.144531 -9.398438 1.5 -9.921875 C 1.863281 -10.441406 2.375 -10.835938 3.03125 -11.109375 C 3.6875 -11.390625 4.445312 -11.53125 5.3125 -11.53125 C 6.332031 -11.53125 7.175781 -11.378906 7.84375 -11.078125 C 8.507812 -10.785156 9.03125 -10.394531 9.40625 -9.90625 L 7.890625 -8.265625 L 7.6875 -8.265625 C 7.375 -8.617188 7.019531 -8.878906 6.625 -9.046875 C 6.238281 -9.210938 5.800781 -9.296875 5.3125 -9.296875 C 4.1875 -9.296875 3.625 -8.945312 3.625 -8.25 C 3.625 -7.945312 3.726562 -7.703125 3.9375 -7.515625 C 4.144531 -7.335938 4.515625 -7.191406 5.046875 -7.078125 L 6.4375 -6.765625 C 7.582031 -6.523438 8.421875 -6.128906 8.953125 -5.578125 C 9.484375 -5.035156 9.75 -4.304688 9.75 -3.390625 C 9.75 -2.671875 9.570312 -2.035156 9.21875 -1.484375 C 8.863281 -0.941406 8.347656 -0.519531 7.671875 -0.21875 C 7.003906 0.0703125 6.210938 0.21875 5.296875 0.21875 Z M 5.296875 0.21875 "/></g></g></g><g fill="#ffffff" fill-opacity="1"><g transform="translate(231.321979, 267.366868)"><g><path d="M 7.796875 -2.703125 L 8.546875 -0.59375 C 8.234375 -0.34375 7.84375 -0.144531 7.375 0 C 6.914062 0.144531 6.390625 0.21875 5.796875 0.21875 C 4.578125 0.21875 3.648438 -0.113281 3.015625 -0.78125 C 2.378906 -1.445312 2.0625 -2.414062 2.0625 -3.6875 L 2.0625 -9.0625 L 0.34375 -9.0625 L 0.34375 -11.328125 L 2.0625 -11.328125 L 2.0625 -13.53125 L 4.90625 -13.984375 L 4.90625 -11.328125 L 8.109375 -11.328125 L 8.109375 -9.0625 L 4.90625 -9.0625 L 4.90625 -3.890625 C 4.90625 -3.335938 5.019531 -2.929688 5.25 -2.671875 C 5.476562 -2.410156 5.816406 -2.28125 6.265625 -2.28125 C 6.773438 -2.28125 7.21875 -2.421875 7.59375 -2.703125 Z M 7.796875 -2.703125 "/></g></g></g><g fill="#ffffff" fill-opacity="1"><g transform="translate(239.269579, 267.366868)"><g><path d="M 3.046875 -12.65625 C 2.535156 -12.65625 2.117188 -12.8125 1.796875 -13.125 C 1.472656 -13.4375 1.3125 -13.835938 1.3125 -14.328125 C 1.3125 -14.816406 1.472656 -15.21875 1.796875 -15.53125 C 2.117188 -15.84375 2.535156 -16 3.046875 -16 C 3.390625 -16 3.691406 -15.925781 3.953125 -15.78125 C 4.222656 -15.632812 4.429688 -15.4375 4.578125 -15.1875 C 4.722656 -14.9375 4.796875 -14.648438 4.796875 -14.328125 C 4.796875 -14.015625 4.722656 -13.726562 4.578125 -13.46875 C 4.429688 -13.21875 4.222656 -13.019531 3.953125 -12.875 C 3.691406 -12.726562 3.390625 -12.65625 3.046875 -12.65625 Z M 1.625 0 L 1.625 -11.3125 L 4.46875 -11.3125 L 4.46875 0 Z M 1.625 0 "/></g></g></g><g fill="#ffffff" fill-opacity="1"><g transform="translate(244.520403, 267.366868)"><g><path d="M 6.59375 0.21875 C 5.5 0.21875 4.53125 -0.0078125 3.6875 -0.46875 C 2.851562 -0.925781 2.195312 -1.59375 1.71875 -2.46875 C 1.25 -3.351562 1.015625 -4.414062 1.015625 -5.65625 C 1.015625 -6.894531 1.25 -7.953125 1.71875 -8.828125 C 2.195312 -9.710938 2.851562 -10.382812 3.6875 -10.84375 C 4.519531 -11.300781 5.472656 -11.53125 6.546875 -11.53125 C 8.929688 -11.53125 10.457031 -10.664062 11.125 -8.9375 L 9.171875 -7.53125 L 8.96875 -7.53125 C 8.726562 -8.070312 8.421875 -8.46875 8.046875 -8.71875 C 7.679688 -8.976562 7.179688 -9.109375 6.546875 -9.109375 C 5.722656 -9.109375 5.082031 -8.820312 4.625 -8.25 C 4.164062 -7.6875 3.9375 -6.820312 3.9375 -5.65625 C 3.9375 -4.488281 4.164062 -3.617188 4.625 -3.046875 C 5.09375 -2.472656 5.75 -2.1875 6.59375 -2.1875 C 7.207031 -2.1875 7.726562 -2.351562 8.15625 -2.6875 C 8.582031 -3.019531 8.890625 -3.5 9.078125 -4.125 L 9.296875 -4.140625 L 11.3125 -3.03125 C 11.019531 -2.070312 10.484375 -1.289062 9.703125 -0.6875 C 8.929688 -0.0820312 7.894531 0.21875 6.59375 0.21875 Z M 6.59375 0.21875 "/></g></g></g><g fill="#ffffff" fill-opacity="1"><g transform="translate(255.339097, 267.366868)"><g/></g></g><g fill="#ffffff" fill-opacity="1"><g transform="translate(259.451738, 267.366868)"><g><path d="M 11.625 -9.359375 L 11.625 -14.984375 L 14.578125 -14.984375 L 14.578125 0 L 11.625 0 L 11.625 -6.828125 L 4.90625 -6.828125 L 4.90625 0 L 1.953125 0 L 1.953125 -14.984375 L 4.90625 -14.984375 L 4.90625 -9.359375 Z M 11.625 -9.359375 "/></g></g></g><g fill="#ffffff" fill-opacity="1"><g transform="translate(275.151291, 267.366868)"><g><path d="M 11.171875 -5.015625 L 3.90625 -5.015625 C 3.988281 -4.023438 4.269531 -3.304688 4.75 -2.859375 C 5.226562 -2.410156 5.878906 -2.1875 6.703125 -2.1875 C 7.359375 -2.1875 7.882812 -2.304688 8.28125 -2.546875 C 8.6875 -2.796875 9.015625 -3.164062 9.265625 -3.65625 L 9.46875 -3.65625 L 11.359375 -2.453125 C 10.992188 -1.660156 10.4375 -1.015625 9.6875 -0.515625 C 8.945312 -0.0234375 7.953125 0.21875 6.703125 0.21875 C 5.535156 0.21875 4.523438 -0.00390625 3.671875 -0.453125 C 2.828125 -0.898438 2.171875 -1.5625 1.703125 -2.4375 C 1.242188 -3.3125 1.015625 -4.382812 1.015625 -5.65625 C 1.015625 -6.9375 1.253906 -8.015625 1.734375 -8.890625 C 2.222656 -9.773438 2.878906 -10.4375 3.703125 -10.875 C 4.535156 -11.3125 5.46875 -11.53125 6.5 -11.53125 C 8.101562 -11.53125 9.328125 -11.101562 10.171875 -10.25 C 11.023438 -9.40625 11.453125 -8.160156 11.453125 -6.515625 C 11.453125 -5.921875 11.429688 -5.460938 11.390625 -5.140625 Z M 8.734375 -6.84375 C 8.710938 -7.707031 8.515625 -8.335938 8.140625 -8.734375 C 7.765625 -9.128906 7.21875 -9.328125 6.5 -9.328125 C 5.0625 -9.328125 4.21875 -8.5 3.96875 -6.84375 Z M 8.734375 -6.84375 "/></g></g></g><g fill="#ffffff" fill-opacity="1"><g transform="translate(286.605727, 267.366868)"><g><path d="M 4.40625 0.21875 C 3.6875 0.21875 3.054688 0.0859375 2.515625 -0.171875 C 1.984375 -0.441406 1.570312 -0.835938 1.28125 -1.359375 C 1 -1.878906 0.859375 -2.5 0.859375 -3.21875 C 0.859375 -3.882812 1 -4.445312 1.28125 -4.90625 C 1.570312 -5.363281 2.019531 -5.734375 2.625 -6.015625 C 3.226562 -6.304688 4.015625 -6.535156 4.984375 -6.703125 C 5.660156 -6.804688 6.175781 -6.921875 6.53125 -7.046875 C 6.882812 -7.179688 7.117188 -7.328125 7.234375 -7.484375 C 7.359375 -7.648438 7.421875 -7.863281 7.421875 -8.125 C 7.421875 -8.488281 7.296875 -8.765625 7.046875 -8.953125 C 6.796875 -9.140625 6.375 -9.234375 5.78125 -9.234375 C 5.15625 -9.234375 4.554688 -9.09375 3.984375 -8.8125 C 3.421875 -8.53125 2.929688 -8.164062 2.515625 -7.71875 L 2.3125 -7.71875 L 1.125 -9.5 C 1.695312 -10.132812 2.394531 -10.628906 3.21875 -10.984375 C 4.039062 -11.347656 4.941406 -11.53125 5.921875 -11.53125 C 7.421875 -11.53125 8.503906 -11.210938 9.171875 -10.578125 C 9.847656 -9.941406 10.1875 -9.035156 10.1875 -7.859375 L 10.1875 -2.953125 C 10.1875 -2.441406 10.40625 -2.1875 10.84375 -2.1875 C 11.019531 -2.1875 11.1875 -2.21875 11.34375 -2.28125 L 11.5 -2.25 L 11.703125 -0.265625 C 11.546875 -0.160156 11.328125 -0.078125 11.046875 -0.015625 C 10.765625 0.046875 10.457031 0.078125 10.125 0.078125 C 9.445312 0.078125 8.914062 -0.0507812 8.53125 -0.3125 C 8.15625 -0.570312 7.882812 -0.976562 7.71875 -1.53125 L 7.5 -1.546875 C 6.945312 -0.367188 5.914062 0.21875 4.40625 0.21875 Z M 5.3125 -1.90625 C 5.96875 -1.90625 6.488281 -2.125 6.875 -2.5625 C 7.269531 -3.007812 7.46875 -3.625 7.46875 -4.40625 L 7.46875 -5.5625 L 7.28125 -5.59375 C 7.113281 -5.457031 6.890625 -5.34375 6.609375 -5.25 C 6.328125 -5.15625 5.929688 -5.066406 5.421875 -4.984375 C 4.796875 -4.878906 4.347656 -4.703125 4.078125 -4.453125 C 3.816406 -4.203125 3.6875 -3.847656 3.6875 -3.390625 C 3.6875 -2.910156 3.828125 -2.539062 4.109375 -2.28125 C 4.398438 -2.03125 4.800781 -1.90625 5.3125 -1.90625 Z M 5.3125 -1.90625 "/></g></g></g><g fill="#ffffff" fill-opacity="1"><g transform="translate(297.691023, 267.366868)"><g><path d="M 4.703125 0.21875 C 3.679688 0.21875 2.898438 -0.0546875 2.359375 -0.609375 C 1.828125 -1.160156 1.5625 -2 1.5625 -3.125 L 1.5625 -15.859375 L 4.40625 -15.859375 L 4.40625 -3.234375 C 4.40625 -2.535156 4.691406 -2.1875 5.265625 -2.1875 C 5.421875 -2.1875 5.59375 -2.21875 5.78125 -2.28125 L 5.921875 -2.234375 L 6.1875 -0.046875 C 6.03125 0.0351562 5.820312 0.0976562 5.5625 0.140625 C 5.300781 0.191406 5.015625 0.21875 4.703125 0.21875 Z M 4.703125 0.21875 "/></g></g></g><g fill="#ffffff" fill-opacity="1"><g transform="translate(303.352003, 267.366868)"><g><path d="M 7.796875 -2.703125 L 8.546875 -0.59375 C 8.234375 -0.34375 7.84375 -0.144531 7.375 0 C 6.914062 0.144531 6.390625 0.21875 5.796875 0.21875 C 4.578125 0.21875 3.648438 -0.113281 3.015625 -0.78125 C 2.378906 -1.445312 2.0625 -2.414062 2.0625 -3.6875 L 2.0625 -9.0625 L 0.34375 -9.0625 L 0.34375 -11.328125 L 2.0625 -11.328125 L 2.0625 -13.53125 L 4.90625 -13.984375 L 4.90625 -11.328125 L 8.109375 -11.328125 L 8.109375 -9.0625 L 4.90625 -9.0625 L 4.90625 -3.890625 C 4.90625 -3.335938 5.019531 -2.929688 5.25 -2.671875 C 5.476562 -2.410156 5.816406 -2.28125 6.265625 -2.28125 C 6.773438 -2.28125 7.21875 -2.421875 7.59375 -2.703125 Z M 7.796875 -2.703125 "/></g></g></g><g fill="#ffffff" fill-opacity="1"><g transform="translate(311.299604, 267.366868)"><g><path d="M 1.625 0 L 1.625 -15.859375 L 4.46875 -15.859375 L 4.46875 -9.828125 L 4.6875 -9.796875 C 5.0625 -10.347656 5.519531 -10.773438 6.0625 -11.078125 C 6.613281 -11.378906 7.273438 -11.53125 8.046875 -11.53125 C 10.546875 -11.53125 11.796875 -10.113281 11.796875 -7.28125 L 11.796875 0 L 8.953125 0 L 8.953125 -6.921875 C 8.953125 -7.691406 8.796875 -8.25 8.484375 -8.59375 C 8.179688 -8.945312 7.707031 -9.125 7.0625 -9.125 C 6.257812 -9.125 5.625 -8.859375 5.15625 -8.328125 C 4.695312 -7.796875 4.46875 -6.972656 4.46875 -5.859375 L 4.46875 0 Z M 1.625 0 "/></g></g></g><g clip-path="url(#b6f1ec66f5)"><path fill="#000000" d="M 134.964844 200.109375 C 134.667969 199.589844 134.171875 199.273438 133.75 198.910156 C 129.816406 195.550781 126.148438 191.9375 122.75 188.027344 C 117.964844 182.523438 113.953125 176.496094 110.410156 170.15625 C 107.859375 165.601562 105.632812 160.871094 103.882812 155.933594 C 103.261719 154.1875 102.546875 152.472656 101.910156 150.734375 C 100.492188 146.851562 99.566406 142.828125 98.78125 138.785156 C 98 134.792969 97.703125 130.734375 97.847656 126.65625 C 97.855469 126.425781 97.914062 126.203125 97.949219 125.9375 C 98.625 125.875 98.847656 126.4375 99.171875 126.777344 C 100.175781 127.824219 101.128906 128.914062 102.109375 129.984375 C 103.8125 131.84375 105.898438 133.226562 107.949219 134.640625 C 112.300781 137.648438 116.886719 140.253906 121.664062 142.519531 C 124.386719 143.816406 127.046875 145.238281 129.769531 146.53125 C 132.859375 147.996094 135.984375 149.378906 139.09375 150.804688 C 144.464844 153.265625 149.855469 155.699219 155.207031 158.207031 C 158.828125 159.902344 162.402344 161.707031 166 163.460938 C 166.347656 163.628906 166.710938 163.765625 167.285156 164.007812 C 167.15625 163.542969 167.101562 163.277344 167.011719 163.027344 C 165.953125 160.0625 165.210938 157.023438 164.789062 153.910156 C 164.65625 152.933594 164.554688 151.949219 164.535156 150.964844 C 164.496094 148.414062 164.550781 145.855469 164.496094 143.300781 C 164.433594 140.136719 165.054688 137.066406 165.695312 134 C 167.09375 127.34375 169.804688 121.210938 173.214844 115.359375 C 174.464844 113.207031 175.644531 111.003906 176.929688 108.867188 C 178.695312 105.933594 180.546875 103.058594 182.324219 100.132812 C 185.34375 95.167969 188.941406 90.605469 192.269531 85.855469 C 194.199219 83.101562 196.367188 80.511719 198.425781 77.851562 C 199.203125 76.851562 199.972656 75.84375 200.792969 74.773438 C 201.027344 74.957031 201.234375 75.0625 201.359375 75.226562 C 203.628906 78.09375 205.925781 80.9375 208.140625 83.847656 C 209.96875 86.246094 211.6875 88.730469 213.476562 91.160156 C 216.46875 95.230469 219.128906 99.519531 221.859375 103.761719 C 223.488281 106.296875 224.933594 108.949219 226.441406 111.566406 C 227.859375 114.027344 229.332031 116.460938 230.628906 118.988281 C 233.394531 124.382812 235.472656 130.015625 236.585938 136.007812 C 237.375 140.273438 237.339844 144.546875 237.363281 148.84375 C 237.382812 151.820312 237.046875 154.757812 236.398438 157.648438 C 236.007812 159.398438 235.40625 161.101562 234.894531 162.824219 C 234.800781 163.140625 234.695312 163.453125 234.527344 163.992188 C 234.996094 163.824219 235.257812 163.761719 235.492188 163.648438 C 239.144531 161.867188 242.777344 160.0625 246.4375 158.308594 C 248.949219 157.105469 251.488281 155.96875 254.019531 154.8125 C 257.761719 153.109375 261.5 151.390625 265.257812 149.714844 C 271.191406 147.070312 276.992188 144.152344 282.789062 141.238281 C 288.039062 138.605469 293.042969 135.546875 297.628906 131.875 C 299.382812 130.472656 300.835938 128.695312 302.417969 127.082031 C 302.84375 126.648438 303.140625 126.058594 303.757812 125.839844 C 303.867188 125.992188 303.984375 126.078125 303.988281 126.167969 C 304.019531 128.195312 304.148438 130.222656 303.875 132.25 C 303.703125 133.511719 303.605469 134.785156 303.449219 136.050781 C 302.828125 141.023438 301.566406 145.84375 299.96875 150.582031 C 298.414062 155.199219 296.570312 159.707031 294.511719 164.125 C 290.835938 172.003906 286.195312 179.285156 280.777344 186.054688 C 278.101562 189.410156 275.1875 192.574219 271.964844 195.4375 C 270.582031 196.667969 269.191406 197.898438 267.828125 199.15625 C 267.503906 199.457031 267.027344 199.644531 266.902344 200.238281 C 267.265625 200.238281 267.605469 200.300781 267.910156 200.230469 C 272.511719 199.171875 277.203125 198.882812 281.890625 198.589844 C 288.578125 198.167969 295.222656 198.710938 301.859375 199.410156 C 304.226562 199.660156 306.59375 199.890625 308.933594 200.292969 C 314.820312 201.3125 320.691406 202.445312 326.414062 204.175781 C 329.792969 205.195312 333.082031 206.519531 336.410156 207.71875 C 336.777344 207.851562 337.117188 208.074219 337.421875 208.230469 C 337.613281 208.882812 337.210938 209.195312 336.886719 209.496094 C 335.558594 210.710938 334.257812 211.960938 332.851562 213.078125 C 329.675781 215.609375 326.53125 218.191406 323.203125 220.515625 C 319.691406 222.972656 315.988281 225.160156 312.363281 227.453125 C 309.074219 229.53125 305.585938 231.242188 302.117188 232.988281 C 298.695312 234.707031 295.109375 236.058594 291.496094 237.320312 C 291.0625 237.472656 290.609375 237.59375 290.183594 237.777344 C 287.683594 238.863281 285.09375 239.703125 282.484375 240.476562 C 280.046875 241.203125 277.585938 241.886719 275.09375 242.398438 C 272.375 242.957031 269.613281 243.328125 266.859375 243.734375 C 265.484375 243.933594 264.089844 244.03125 262.707031 244.171875 C 262.203125 244.222656 261.691406 244.289062 261.242188 244.113281 C 261.101562 243.664062 261.398438 243.511719 261.570312 243.300781 C 262.160156 242.582031 262.839844 241.925781 263.328125 241.148438 C 265.359375 237.894531 265.484375 234.472656 263.949219 231 C 263.453125 229.878906 262.578125 228.996094 261.578125 228.261719 C 261.214844 227.996094 260.855469 227.722656 260.378906 227.359375 C 260.714844 227.140625 260.917969 226.953125 261.160156 226.847656 C 264.644531 225.347656 267.007812 222.734375 268.566406 219.351562 C 269.613281 217.085938 269.75 214.648438 269.613281 212.195312 C 269.601562 211.980469 269.3125 211.640625 269.113281 211.609375 C 268.902344 211.574219 268.535156 211.785156 268.429688 211.988281 C 268.171875 212.5 268.015625 213.0625 267.828125 213.609375 C 267.472656 214.652344 267.109375 215.6875 266.140625 216.542969 C 265.921875 216.117188 265.746094 215.722656 265.535156 215.351562 C 264.992188 214.390625 264.152344 213.984375 263.0625 214.101562 C 262.21875 214.195312 261.394531 214.519531 260.507812 214.183594 C 260.296875 214.101562 259.871094 214.398438 259.625 214.617188 C 258.703125 215.414062 257.792969 216.226562 256.925781 217.078125 C 255.722656 218.261719 254.269531 218.894531 252.652344 219.261719 C 251.484375 219.53125 250.460938 219.296875 249.53125 218.609375 C 248.96875 218.199219 248.4375 217.742188 247.941406 217.257812 C 245.109375 214.507812 242.277344 211.769531 239.96875 208.53125 C 237.898438 205.636719 235.324219 203.179688 232.71875 200.789062 C 231.347656 199.527344 230.582031 198.074219 230.269531 196.320312 C 229.6875 193.007812 229.148438 189.6875 228.601562 186.367188 C 228.472656 185.566406 228.347656 184.761719 228.269531 183.957031 C 228 181.128906 227.78125 178.296875 227.484375 175.472656 C 227.316406 173.863281 227.148438 172.234375 226.773438 170.664062 C 226.316406 168.765625 225.148438 167.34375 223.242188 166.660156 C 221.875 166.167969 220.511719 165.679688 219.140625 165.203125 C 216.175781 164.171875 213.375 162.773438 210.617188 161.296875 C 209.269531 160.574219 208.117188 159.5625 207.289062 158.285156 C 206.320312 156.800781 205.941406 155.097656 205.9375 153.324219 C 205.9375 152.707031 206.257812 152.214844 206.6875 151.804688 C 207.109375 151.402344 207.53125 151.007812 207.976562 150.636719 C 211.824219 147.464844 213.960938 143.304688 214.855469 138.476562 C 215.585938 134.5625 215.71875 130.617188 214.652344 126.742188 C 213.199219 121.464844 208.164062 117.386719 202.769531 116.566406 C 195.066406 115.398438 188.324219 121.042969 186.964844 127.660156 C 185.726562 133.707031 186.359375 139.578125 189.296875 145.078125 C 190.335938 147.023438 191.621094 148.824219 193.398438 150.214844 C 193.941406 150.644531 194.414062 151.167969 194.949219 151.609375 C 195.691406 152.214844 195.957031 152.980469 195.902344 153.914062 C 195.699219 157.273438 194.066406 159.730469 191.167969 161.332031 C 187.65625 163.273438 183.988281 164.863281 180.183594 166.128906 C 179.6875 166.296875 179.1875 166.445312 178.699219 166.621094 C 176.597656 167.382812 175.433594 168.9375 174.972656 171.074219 C 174.523438 173.175781 174.382812 175.316406 174.222656 177.453125 C 173.742188 183.765625 172.828125 190.015625 171.609375 196.222656 C 171.496094 196.789062 171.292969 197.339844 171.140625 197.898438 C 170.890625 198.824219 170.382812 199.5625 169.691406 200.222656 C 168.222656 201.625 166.753906 203.035156 165.371094 204.523438 C 164.027344 205.960938 162.726562 207.453125 161.527344 209.011719 C 160.285156 210.621094 159.042969 212.226562 157.574219 213.636719 C 155.859375 215.28125 154.074219 216.859375 152.410156 218.554688 C 151.40625 219.578125 150.257812 219.667969 149.054688 219.335938 C 147.425781 218.890625 145.894531 218.199219 144.675781 216.949219 C 143.90625 216.160156 143.078125 215.429688 142.257812 214.695312 C 141.800781 214.289062 141.289062 214.117188 140.652344 214.324219 C 140.351562 214.421875 139.976562 214.363281 139.660156 214.289062 C 137.773438 213.855469 137.148438 214.132812 136.148438 215.894531 C 136.070312 216.035156 135.941406 216.160156 135.804688 216.335938 C 135.101562 216.164062 134.800781 215.585938 134.539062 215.035156 C 134.261719 214.464844 134.101562 213.839844 133.894531 213.238281 C 133.761719 212.855469 133.664062 212.457031 133.5 212.089844 C 133.355469 211.757812 133.09375 211.488281 132.691406 211.582031 C 132.3125 211.671875 132.15625 212.003906 132.117188 212.363281 C 132.082031 212.707031 132.078125 213.058594 132.089844 213.40625 C 132.210938 216.863281 133.1875 220.023438 135.351562 222.773438 C 136.597656 224.355469 138.148438 225.539062 139.902344 226.480469 C 140.359375 226.726562 140.832031 226.941406 141.4375 227.234375 C 141.140625 227.523438 140.949219 227.78125 140.699219 227.949219 C 138.117188 229.675781 137.03125 232.15625 136.902344 235.191406 C 136.765625 238.296875 137.972656 240.832031 140.007812 243.058594 C 140.203125 243.269531 140.40625 243.476562 140.597656 243.6875 C 140.636719 243.730469 140.648438 243.792969 140.675781 243.855469 C 140.5 244.414062 140.015625 244.238281 139.664062 244.203125 C 137.125 243.941406 134.585938 243.6875 132.054688 243.355469 C 129.414062 243.003906 126.789062 242.519531 124.222656 241.785156 C 119.996094 240.570312 115.707031 239.554688 111.660156 237.78125 C 110.972656 237.476562 110.230469 237.3125 109.527344 237.039062 C 106.882812 236.003906 104.210938 235.023438 101.613281 233.882812 C 99.496094 232.953125 97.457031 231.832031 95.394531 230.769531 C 90.808594 228.394531 86.445312 225.640625 82.105469 222.847656 C 76.285156 219.097656 70.902344 214.789062 65.722656 210.207031 C 65.171875 209.71875 64.507812 209.296875 64.3125 208.488281 C 64.65625 207.835938 65.34375 207.742188 65.910156 207.527344 C 70.730469 205.675781 75.566406 203.871094 80.632812 202.808594 C 84.890625 201.917969 89.140625 201.011719 93.417969 200.222656 C 95.582031 199.828125 97.785156 199.65625 99.972656 199.410156 C 105.164062 198.824219 110.371094 198.359375 115.59375 198.453125 C 121.6875 198.558594 127.769531 198.878906 133.753906 200.195312 C 134.035156 200.253906 134.324219 200.285156 134.613281 200.296875 C 134.703125 200.300781 134.796875 200.203125 134.964844 200.109375 Z M 161.050781 191.886719 C 161.050781 191.984375 161.046875 192.074219 161.046875 192.167969 C 161.109375 192.144531 161.167969 192.121094 161.230469 192.097656 C 161.15625 192.039062 161.085938 191.976562 161.015625 191.917969 C 161.015625 191.746094 161.070312 191.550781 161.015625 191.402344 C 159.828125 188.382812 158.636719 185.363281 156.882812 182.601562 C 153.933594 177.960938 150.320312 173.898438 146.121094 170.371094 C 139.589844 164.882812 132.386719 160.511719 124.453125 157.359375 C 123.980469 157.167969 123.519531 156.945312 122.753906 156.941406 C 123.300781 157.324219 123.65625 157.589844 124.027344 157.839844 C 126.335938 159.398438 128.667969 160.914062 130.941406 162.515625 C 135.070312 165.417969 139.046875 168.519531 142.976562 171.683594 C 146.382812 174.421875 149.492188 177.476562 152.328125 180.769531 C 154.707031 183.53125 156.773438 186.5625 158.96875 189.480469 C 159.492188 190.175781 159.972656 190.90625 160.503906 191.597656 C 160.617188 191.746094 160.867188 191.792969 161.050781 191.886719 Z M 278.207031 157.347656 C 278.171875 157.246094 278.132812 157.144531 278.09375 157.042969 C 277.671875 157.171875 277.234375 157.273438 276.824219 157.441406 C 269.460938 160.421875 262.699219 164.417969 256.527344 169.417969 C 253.042969 172.242188 249.917969 175.402344 247.152344 178.953125 C 244.234375 182.703125 242.160156 186.890625 240.496094 191.308594 C 240.417969 191.503906 240.4375 191.738281 240.375 192.261719 C 241.355469 191.269531 241.914062 190.339844 242.535156 189.457031 C 244.792969 186.222656 247.089844 183.003906 249.75 180.082031 C 252.839844 176.695312 256.152344 173.539062 259.761719 170.679688 C 264.539062 166.894531 269.386719 163.21875 274.445312 159.816406 C 275.691406 158.980469 276.953125 158.171875 278.207031 157.347656 " fill-opacity="1" fill-rule="evenodd"/></g><path fill="#000000" d="M 182.09375 190.613281 C 182.449219 191.265625 182.691406 191.644531 182.871094 192.046875 C 184.339844 195.351562 185.394531 198.78125 185.929688 202.351562 C 186.363281 205.257812 186.191406 208.136719 185.195312 210.933594 C 184.730469 212.246094 184.351562 213.585938 183.863281 214.890625 C 183.539062 215.753906 183.160156 216.613281 182.691406 217.410156 C 181.183594 219.953125 179.625 222.46875 178.085938 224.992188 C 177.964844 225.1875 177.828125 225.375 177.703125 225.570312 C 177.421875 226 177.035156 226.183594 176.519531 226.125 C 175.945312 226.058594 175.363281 226.011719 174.789062 225.949219 C 172.082031 225.65625 169.378906 225.347656 166.652344 225.320312 C 164.855469 225.300781 163.058594 225.117188 161.269531 225.171875 C 158.664062 225.253906 156.0625 225.46875 153.464844 225.65625 C 152.898438 225.695312 152.347656 225.796875 151.835938 225.699219 C 151.667969 225.308594 151.90625 225.175781 152.078125 225.054688 C 152.648438 224.652344 153.210938 224.242188 153.820312 223.90625 C 156.660156 222.324219 159.335938 220.492188 162.027344 218.671875 C 163.277344 217.832031 164.5625 217.042969 165.878906 216.3125 C 168.371094 214.925781 170.652344 213.265625 172.835938 211.425781 C 175.371094 209.289062 176.972656 206.640625 177.921875 203.507812 C 179.128906 199.511719 180.398438 195.539062 181.648438 191.554688 C 181.71875 191.339844 181.839844 191.144531 182.09375 190.613281 " fill-opacity="1" fill-rule="evenodd"/><path fill="#000000" d="M 219.820312 190.609375 C 220.117188 191.457031 220.3125 191.988281 220.484375 192.527344 C 221.203125 194.785156 221.925781 197.050781 222.636719 199.3125 C 223.089844 200.75 223.574219 202.179688 223.960938 203.632812 C 224.804688 206.824219 226.503906 209.445312 229.046875 211.53125 C 231.246094 213.335938 233.574219 214.933594 236.039062 216.371094 C 238.738281 217.945312 241.308594 219.734375 243.949219 221.417969 C 244.972656 222.070312 246.027344 222.671875 247.058594 223.316406 C 247.988281 223.898438 248.914062 224.496094 249.832031 225.097656 C 249.964844 225.183594 250.046875 225.34375 250.152344 225.46875 C 249.925781 225.914062 249.535156 225.753906 249.234375 225.734375 C 247.214844 225.597656 245.195312 225.433594 243.175781 225.277344 C 240.746094 225.089844 238.316406 225.085938 235.886719 225.277344 C 233.578125 225.457031 231.265625 225.582031 228.957031 225.75 C 227.921875 225.828125 226.875 225.890625 225.851562 226.074219 C 224.914062 226.25 224.316406 225.980469 223.84375 225.15625 C 223.0625 223.800781 222.210938 222.484375 221.398438 221.148438 C 221.1875 220.804688 221.011719 220.433594 220.777344 220.105469 C 218.375 216.738281 217.164062 212.871094 216.089844 208.949219 C 215.546875 206.960938 215.5625 204.910156 215.832031 202.90625 C 216.367188 198.921875 217.550781 195.109375 219.238281 191.453125 C 219.332031 191.25 219.488281 191.082031 219.820312 190.609375 " fill-opacity="1" fill-rule="evenodd"/><path fill="#000000" d="M 260.355469 221.136719 C 259.683594 221.183594 259.160156 220.652344 259.273438 220.132812 C 259.570312 218.734375 260.296875 217.582031 261.484375 216.777344 C 261.828125 216.542969 262.304688 216.574219 262.601562 216.890625 C 262.8125 217.113281 263.035156 217.519531 262.972656 217.78125 C 262.695312 218.972656 262.125 220.03125 261.132812 220.792969 C 260.875 220.992188 260.515625 221.070312 260.355469 221.136719 " fill-opacity="1" fill-rule="evenodd"/><path fill="#000000" d="M 141.566406 221.222656 C 141.164062 220.996094 140.695312 220.851562 140.390625 220.546875 C 139.703125 219.847656 139.195312 219.015625 138.921875 218.058594 C 138.773438 217.53125 138.910156 217.09375 139.296875 216.847656 C 139.683594 216.597656 140.171875 216.613281 140.574219 216.929688 C 141.503906 217.660156 142.085938 218.640625 142.46875 219.738281 C 142.609375 220.140625 142.507812 220.546875 142.195312 220.851562 C 142.046875 221 141.824219 221.074219 141.566406 221.222656 " fill-opacity="1" fill-rule="evenodd"/><path fill="#000000" d="M 161.015625 191.917969 C 161.085938 191.976562 161.15625 192.039062 161.230469 192.097656 C 161.167969 192.121094 161.109375 192.144531 161.046875 192.167969 C 161.046875 192.074219 161.050781 191.984375 161.050781 191.886719 C 161.050781 191.886719 161.015625 191.917969 161.015625 191.917969 " fill-opacity="1" fill-rule="evenodd"/></svg>